<svg width="247" height="43" viewBox="0 0 247 43" fill="none" xmlns="http://www.w3.org/2000/svg">
<path d="M225.46 0.842285H20.8763C9.37037 0.842285 0.0429688 10.1697 0.0429688 21.6756C0.0429688 33.1816 9.37037 42.509 20.8763 42.509H225.46C236.966 42.509 246.293 33.1816 246.293 21.6756C246.293 10.1697 236.966 0.842285 225.46 0.842285Z" fill="#02B14F"/>
<path d="M27.707 16.7884C27.182 16.7884 26.7445 16.6759 26.3987 16.455C26.0529 16.2342 25.7779 15.9426 25.582 15.5801L26.6987 14.7634C26.8695 15.1884 27.1612 15.4009 27.5737 15.4009C27.807 15.4009 27.9904 15.3384 28.1237 15.2092C28.257 15.08 28.3237 14.9009 28.3237 14.6676V12.5259H29.9612V14.8301C29.9612 15.4551 29.757 15.9342 29.3487 16.2759C28.9404 16.6175 28.3904 16.7884 27.6987 16.7884H27.707ZM28.4987 28.0093C27.782 28.0093 27.257 27.8259 26.9279 27.4634C26.5987 27.1009 26.432 26.6259 26.432 26.0384V20.0676C26.432 19.2884 26.6279 18.7175 27.0195 18.355C27.4112 17.9884 27.9487 17.8092 28.6279 17.8092C28.8195 17.8092 28.9987 17.8175 29.1654 17.8342C29.3279 17.8509 29.482 17.8718 29.6237 17.9009V19.4509C29.5195 19.4301 29.4195 19.4134 29.332 19.405C29.2445 19.3925 29.1404 19.3884 29.0279 19.3884C28.4529 19.3884 28.1654 19.6759 28.1654 20.2467V25.8509C28.1654 26.1175 28.232 26.3093 28.3612 26.4218C28.4904 26.5343 28.6862 26.5884 28.9404 26.5884C29.1237 26.5884 29.2987 26.5634 29.4737 26.5134V27.8634C29.3612 27.9092 29.1987 27.9467 28.9904 27.9759C28.782 28.0051 28.6195 28.0175 28.5029 28.0175L28.4987 28.0093Z" fill="white"/>
<path d="M35.8625 28.0218C34.7 28.0218 33.7792 27.726 33.1083 27.1385C32.4375 26.5468 32.1042 25.7718 32.1042 24.8051V21.5676L31.1875 21.0927V20.0677C31.1875 19.3344 31.3583 18.7844 31.6958 18.4177C32.0333 18.051 32.5875 17.8677 33.3583 17.8677H39.6667V19.4427H33.3875C32.8625 19.4427 32.6 19.6968 32.6 20.2051V20.501L33.3208 20.8219C33.5042 20.9052 33.6333 20.9927 33.7125 21.0802C33.7917 21.1677 33.8292 21.3093 33.8292 21.4968V24.7343C33.8292 25.2927 34.0083 25.751 34.3667 26.101C34.725 26.451 35.2208 26.626 35.8625 26.626C36.5042 26.626 36.9958 26.451 37.3542 26.101C37.7125 25.751 37.8917 25.2927 37.8917 24.7343V22.576C37.8917 22.176 37.6333 21.976 37.1083 21.976C36.925 21.976 36.75 22.001 36.575 22.0552V20.7551C36.6917 20.7093 36.8542 20.6718 37.0625 20.6426C37.2667 20.6135 37.4292 20.601 37.5542 20.601C38.2708 20.601 38.7958 20.7719 39.125 21.1052C39.4542 21.4427 39.6208 21.8843 39.6208 22.426V24.8051C39.6208 25.7718 39.2833 26.551 38.6125 27.1385C37.9417 27.7302 37.025 28.0218 35.8625 28.0218Z" fill="white"/>
<path d="M42.6406 19.4383V17.8633H50.274V19.4383H42.6406ZM42.699 23.8841C42.699 23.2174 42.8531 22.6341 43.1615 22.1383C43.4698 21.6425 43.9073 21.2549 44.4698 20.9799C45.0323 20.7049 45.699 20.5674 46.4573 20.5674C47.2156 20.5674 47.8823 20.7049 48.4448 20.9799C49.0073 21.2549 49.4448 21.6425 49.7531 22.1383C50.0615 22.6341 50.2156 23.2174 50.2156 23.8841V27.9008H48.4865V23.9632C48.4865 23.3882 48.299 22.9216 47.924 22.5591C47.549 22.2008 47.0615 22.0216 46.4573 22.0216C45.8531 22.0216 45.3656 22.2008 44.9906 22.5591C44.6156 22.9175 44.4281 23.3841 44.4281 23.9632V27.9008H42.699V23.8841Z" fill="white"/>
<path d="M53.9797 28.0094C53.5339 28.0094 53.1005 27.9594 52.6797 27.8552V26.5219C52.813 26.5552 52.9505 26.576 53.0838 26.5969C53.2213 26.6135 53.3839 26.6219 53.5714 26.6219C54.0005 26.6219 54.2172 26.3677 54.2172 25.8635V21.6386L52.8422 21.2052V19.9552C52.8422 19.2386 53.013 18.7094 53.3547 18.3677C53.6964 18.0302 54.2463 17.8594 55.0088 17.8594H56.2047V19.4344H55.1213C54.5255 19.4344 54.2297 19.6968 54.2297 20.2218V20.4218L55.438 20.7635C55.7755 20.8635 55.9463 21.0886 55.9463 21.4386V26.0719C55.9463 26.6844 55.7797 27.1593 55.4464 27.4968C55.113 27.8343 54.6255 28.0011 53.9797 28.0011V28.0094Z" fill="white"/>
<path d="M54.7003 16.2591C54.0753 16.2591 53.5753 16.0675 53.1919 15.6884C52.8128 15.3092 52.6211 14.8341 52.6211 14.2716C52.6211 13.7091 52.8128 13.23 53.1919 12.8467C53.5711 12.4633 54.0753 12.2759 54.7003 12.2759C55.3253 12.2759 55.8253 12.4675 56.2086 12.8467C56.5919 13.2258 56.7794 13.7008 56.7794 14.2716C56.7794 14.8425 56.5878 15.3092 56.2086 15.6884C55.8294 16.0675 55.3253 16.2591 54.7003 16.2591ZM54.7003 15.1175C54.9336 15.1175 55.1253 15.0384 55.2753 14.8759C55.4253 14.7134 55.5044 14.5133 55.5044 14.2716C55.5044 14.03 55.4294 13.8216 55.2753 13.6633C55.1253 13.5008 54.9294 13.4217 54.7003 13.4217C54.4711 13.4217 54.2794 13.5008 54.1253 13.6633C53.9711 13.8258 53.8961 14.03 53.8961 14.2716C53.8961 14.5133 53.9711 14.7134 54.1253 14.8759C54.2794 15.0384 54.4711 15.1175 54.7003 15.1175Z" fill="white"/>
<path d="M60.2813 16.7884C59.7563 16.7884 59.3188 16.6759 58.9729 16.455C58.6271 16.2342 58.3521 15.9426 58.1562 15.5801L59.2729 14.7634C59.4438 15.1884 59.7354 15.4009 60.1479 15.4009C60.3813 15.4009 60.5646 15.3384 60.6979 15.2092C60.8313 15.08 60.8979 14.9009 60.8979 14.6676V12.5259H62.5354V14.8301C62.5354 15.4551 62.3313 15.9342 61.9229 16.2759C61.5146 16.6175 60.9646 16.7884 60.2729 16.7884H60.2813ZM61.0729 28.0093C60.3563 28.0093 59.8313 27.8259 59.5021 27.4634C59.1729 27.1009 59.0063 26.6259 59.0063 26.0384V20.0676C59.0063 19.2884 59.2021 18.7175 59.5938 18.355C59.9854 17.9884 60.5229 17.8092 61.2021 17.8092C61.3938 17.8092 61.5729 17.8175 61.7396 17.8342C61.9021 17.8509 62.0563 17.8718 62.1979 17.9009V19.4509C62.0938 19.4301 61.9938 19.4134 61.9063 19.405C61.8188 19.3925 61.7146 19.3884 61.6021 19.3884C61.0271 19.3884 60.7396 19.6759 60.7396 20.2467V25.8509C60.7396 26.1175 60.8063 26.3093 60.9354 26.4218C61.0646 26.5343 61.2604 26.5884 61.5146 26.5884C61.6979 26.5884 61.8729 26.5634 62.0479 26.5134V27.8634C61.9354 27.9092 61.7729 27.9467 61.5646 27.9759C61.3563 28.0051 61.1938 28.0175 61.0771 28.0175L61.0729 28.0093Z" fill="white"/>
<path d="M66.3909 27.9594C65.6742 27.9594 65.1492 27.7927 64.8201 27.4552C64.4909 27.1177 64.3242 26.6761 64.3242 26.1344V20.9677C64.3242 20.326 64.4742 19.7593 64.7784 19.276C65.0784 18.7926 65.5034 18.4177 66.0534 18.1468C66.6034 17.8802 67.245 17.7427 67.9867 17.7427C68.7284 17.7427 69.3867 17.876 69.9367 18.1468C70.4867 18.4135 70.9117 18.7926 71.2159 19.276C71.52 19.7593 71.6701 20.3218 71.6701 20.9677V24.7135C71.6701 25.2635 71.845 25.7051 72.195 26.0468C72.545 26.3885 73.0034 26.5593 73.5701 26.5593C74.1367 26.5593 74.5992 26.3885 74.9534 26.0468C75.3076 25.7051 75.4825 25.2593 75.4825 24.7135V21.5718L74.5117 21.1386V19.9886C74.5117 19.2886 74.6784 18.7594 75.0117 18.401C75.345 18.0427 75.8742 17.8635 76.595 17.8635H77.6242V19.4385H76.7534C76.1617 19.4385 75.8659 19.701 75.8659 20.226V20.4844L76.6992 20.8136C76.8867 20.8886 77.0159 20.9677 77.095 21.0552C77.17 21.1427 77.2117 21.2802 77.2117 21.4718V24.7968C77.2117 25.4385 77.0617 26.0052 76.7659 26.4885C76.47 26.9718 76.0451 27.3468 75.4992 27.6177C74.9534 27.8843 74.3117 28.0218 73.5742 28.0218C72.8367 28.0218 72.195 27.8885 71.6534 27.6177C71.1117 27.351 70.6909 26.9718 70.3909 26.4885C70.0909 26.0052 69.945 25.4426 69.945 24.7968V21.051C69.945 20.501 69.7659 20.0593 69.4075 19.7177C69.0492 19.376 68.5784 19.2052 67.9909 19.2052C67.4034 19.2052 66.9492 19.376 66.5909 19.7177C66.2326 20.0593 66.0534 20.5052 66.0534 21.051V25.9802C66.0534 26.3802 66.3117 26.576 66.8367 26.576C67.02 26.576 67.1951 26.551 67.3701 26.501V27.8011C67.2576 27.8469 67.095 27.8843 66.8867 27.9135C66.6784 27.9426 66.5159 27.9552 66.3909 27.9552V27.9594Z" fill="white"/>
<path d="M80.2266 19.4383V17.8633H87.8599V19.4383H80.2266ZM80.2849 23.8841C80.2849 23.2174 80.4391 22.6341 80.7474 22.1383C81.0557 21.6425 81.4932 21.2549 82.0557 20.9799C82.6182 20.7049 83.2849 20.5674 84.0432 20.5674C84.8016 20.5674 85.4682 20.7049 86.0307 20.9799C86.5932 21.2549 87.0307 21.6425 87.3391 22.1383C87.6474 22.6341 87.8016 23.2174 87.8016 23.8841V27.9008H86.0724V23.9632C86.0724 23.3882 85.8849 22.9216 85.5099 22.5591C85.1349 22.2008 84.6474 22.0216 84.0432 22.0216C83.4391 22.0216 82.9516 22.2008 82.5766 22.5591C82.2016 22.9175 82.0141 23.3841 82.0141 23.9632V27.9008H80.2849V23.8841Z" fill="white"/>
<path d="M90.8245 19.4383V17.8633H100.512C101.466 17.8633 102.212 18.1008 102.749 18.5716C103.287 19.0424 103.554 19.7632 103.554 20.7299V27.905H101.824V20.8424C101.824 19.9091 101.337 19.4383 100.362 19.4383H90.8203H90.8245ZM90.8828 23.8841C90.8828 23.2174 91.037 22.6341 91.3453 22.1383C91.6536 21.6425 92.0912 21.2549 92.6537 20.9799C93.2162 20.7049 93.8828 20.5674 94.6412 20.5674C95.3995 20.5674 96.0662 20.7049 96.6287 20.9799C97.1912 21.2549 97.6286 21.6425 97.937 22.1383C98.2453 22.6341 98.3995 23.2174 98.3995 23.8841V27.9008H96.6703V23.9632C96.6703 23.3882 96.4828 22.9216 96.1078 22.5591C95.7328 22.2008 95.2453 22.0216 94.6412 22.0216C94.037 22.0216 93.5495 22.2008 93.1745 22.5591C92.7995 22.9175 92.612 23.3841 92.612 23.9632V27.9008H90.8828V23.8841Z" fill="white"/>
<path d="M107.316 28.0094C106.87 28.0094 106.436 27.9594 106.016 27.8552V26.5219C106.149 26.5552 106.286 26.576 106.42 26.5969C106.557 26.6135 106.72 26.6219 106.907 26.6219C107.336 26.6219 107.553 26.3677 107.553 25.8635V21.6386L106.178 21.2052V19.9552C106.178 19.2386 106.349 18.7094 106.691 18.3677C107.032 18.0302 107.582 17.8594 108.345 17.8594H109.541V19.4344H108.457C107.861 19.4344 107.566 19.6968 107.566 20.2218V20.4218L108.774 20.7635C109.111 20.8635 109.282 21.0886 109.282 21.4386V26.0719C109.282 26.6844 109.116 27.1593 108.782 27.4968C108.449 27.8343 107.961 28.0011 107.316 28.0011V28.0094Z" fill="white"/>
<path d="M115.881 28.0216C114.731 28.0216 113.827 27.7342 113.16 27.1592C112.493 26.5842 112.16 25.8049 112.16 24.8174V22.5925H115.906C116.652 22.5925 117.198 22.4383 117.544 22.1258C117.889 21.8175 118.06 21.4341 118.06 20.98C118.06 20.3841 117.873 19.93 117.498 19.6175C117.123 19.305 116.635 19.1508 116.035 19.1508C115.381 19.1508 114.86 19.3217 114.477 19.6675C114.094 20.0133 113.902 20.5175 113.902 21.1841H112.173C112.173 20.0758 112.519 19.2258 113.214 18.63C113.91 18.0383 114.848 17.7383 116.039 17.7383C116.781 17.7383 117.435 17.8592 118.006 18.105C118.573 18.3508 119.019 18.7091 119.339 19.1799C119.66 19.6549 119.818 20.23 119.818 20.9092C119.818 21.7758 119.498 22.4799 118.86 23.0174C118.223 23.5549 117.248 23.8217 115.935 23.8217H113.885V24.8049C113.885 25.3508 114.069 25.7883 114.431 26.1175C114.798 26.4508 115.281 26.6133 115.885 26.6133C116.489 26.6133 116.981 26.4467 117.352 26.1175C117.719 25.7883 117.906 25.3466 117.906 24.8049V24.4841H119.635V24.8091C119.635 25.7966 119.298 26.5758 118.627 27.1508C117.952 27.7258 117.039 28.0133 115.885 28.0133L115.881 28.0216Z" fill="white"/>
<path d="M112.828 16.0802V14.4927H117.286C117.899 14.4927 118.382 14.5593 118.741 14.6927C119.099 14.826 119.399 15.0177 119.649 15.2594V16.076H112.832L112.828 16.0802Z" fill="white"/>
<path d="M122.672 19.4383V17.8633H130.305V19.4383H122.672ZM124.797 27.9591C124.08 27.9591 123.555 27.7925 123.226 27.455C122.897 27.1175 122.73 26.6758 122.73 26.1342V23.8924C122.73 23.2258 122.884 22.6425 123.193 22.1466C123.501 21.6508 123.938 21.2633 124.501 20.9841C125.063 20.7049 125.73 20.5674 126.489 20.5674C127.247 20.5674 127.914 20.7049 128.476 20.9841C129.039 21.2633 129.476 21.6508 129.784 22.1466C130.093 22.6425 130.247 23.2258 130.247 23.8924V27.905H128.518V23.9757C128.518 23.3966 128.33 22.9258 127.955 22.5716C127.58 22.2133 127.093 22.0341 126.489 22.0341C125.884 22.0341 125.397 22.2133 125.022 22.5716C124.647 22.93 124.459 23.3966 124.459 23.9757V25.9883C124.459 26.3883 124.718 26.5841 125.243 26.5841C125.426 26.5841 125.601 26.5591 125.776 26.5091V27.8091C125.664 27.8549 125.501 27.8924 125.293 27.9216C125.084 27.9507 124.922 27.9633 124.797 27.9633V27.9591Z" fill="white"/>
<path d="M136.803 28.0216C135.653 28.0216 134.749 27.7342 134.082 27.1592C133.415 26.5842 133.082 25.8049 133.082 24.8174V22.5925H136.828C137.574 22.5925 138.119 22.4383 138.465 22.1258C138.811 21.8175 138.982 21.4341 138.982 20.98C138.982 20.3841 138.795 19.93 138.42 19.6175C138.045 19.305 137.557 19.1508 136.957 19.1508C136.303 19.1508 135.782 19.3217 135.399 19.6675C135.015 20.0133 134.824 20.5175 134.824 21.1841H133.094C133.094 20.0758 133.44 19.2258 134.136 18.63C134.832 18.0383 135.77 17.7383 136.961 17.7383C137.703 17.7383 138.357 17.8592 138.928 18.105C139.494 18.3508 139.94 18.7091 140.261 19.1799C140.582 19.6549 140.74 20.23 140.74 20.9092C140.74 21.7758 140.42 22.4799 139.782 23.0174C139.145 23.5549 138.17 23.8217 136.857 23.8217H134.807V24.8049C134.807 25.3508 134.99 25.7883 135.353 26.1175C135.72 26.4508 136.203 26.6133 136.807 26.6133C137.411 26.6133 137.903 26.4467 138.274 26.1175C138.64 25.7883 138.828 25.3466 138.828 24.8049V24.4841H140.557V24.8091C140.557 25.7966 140.22 26.5758 139.549 27.1508C138.874 27.7258 137.961 28.0133 136.807 28.0133L136.803 28.0216Z" fill="white"/>
<path d="M137.087 16.2591C136.462 16.2591 135.962 16.0675 135.579 15.6884C135.199 15.3092 135.008 14.8341 135.008 14.2716C135.008 13.7091 135.199 13.23 135.579 12.8467C135.958 12.4633 136.462 12.2759 137.087 12.2759C137.712 12.2759 138.212 12.4675 138.595 12.8467C138.979 13.2258 139.166 13.7008 139.166 14.2716C139.166 14.8425 138.974 15.3092 138.595 15.6884C138.216 16.0675 137.712 16.2591 137.087 16.2591ZM137.087 15.1175C137.32 15.1175 137.512 15.0384 137.662 14.8759C137.812 14.7134 137.891 14.5133 137.891 14.2716C137.891 14.03 137.816 13.8216 137.662 13.6633C137.512 13.5008 137.316 13.4217 137.087 13.4217C136.858 13.4217 136.666 13.5008 136.512 13.6633C136.358 13.8258 136.283 14.03 136.283 14.2716C136.283 14.5133 136.358 14.7134 136.512 14.8759C136.666 15.0384 136.858 15.1175 137.087 15.1175Z" fill="white"/>
<path d="M147.025 32.5633C146.008 32.5633 145.192 32.305 144.579 31.7925C143.967 31.28 143.658 30.6008 143.658 29.7508V21.5633L142.688 21.13V19.98C142.688 19.28 142.854 18.7508 143.188 18.3925C143.521 18.0342 144.05 17.855 144.771 17.855H145.8V19.43H144.929C144.342 19.43 144.046 19.6924 144.046 20.2174V20.4758L144.875 20.805C145.054 20.8758 145.183 20.9549 145.263 21.0424C145.342 21.1299 145.383 21.2674 145.383 21.4633V29.6675C145.383 30.105 145.533 30.4591 145.838 30.7258C146.142 30.9924 146.533 31.1259 147.025 31.1259C147.517 31.1259 147.908 30.9924 148.208 30.7258C148.508 30.4591 148.658 30.1092 148.658 29.6675V28.7259H150.392V29.7425C150.392 30.5925 150.083 31.2716 149.471 31.7841C148.858 32.2966 148.042 32.555 147.025 32.555V32.5633Z" fill="white"/>
<path d="M152.497 28.0216C151.743 28.0216 151.085 27.8882 150.527 27.6174C149.968 27.3466 149.531 26.9674 149.222 26.4757C148.914 25.9841 148.756 25.4091 148.756 24.7508V21.5716L147.789 21.1383V19.9883C147.789 19.2883 147.956 18.7591 148.285 18.4008C148.618 18.0425 149.143 17.8633 149.872 17.8633H150.902V19.4383H150.031C149.439 19.4383 149.143 19.7007 149.143 20.2257V20.4841L149.977 20.8133C150.16 20.8883 150.289 20.9674 150.368 21.0549C150.447 21.1424 150.485 21.2799 150.485 21.4716V24.6633C150.485 25.2258 150.668 25.6842 151.035 26.0342C151.402 26.3842 151.885 26.5591 152.489 26.5591C153.093 26.5591 153.572 26.3841 153.939 26.0382C154.306 25.6924 154.489 25.2341 154.489 24.6675V21.5716L153.522 21.1383V19.9883C153.522 19.2883 153.689 18.7591 154.018 18.4008C154.352 18.0425 154.877 17.8633 155.606 17.8633H156.635V19.4383H155.764C155.172 19.4383 154.877 19.7007 154.877 20.2257V20.4841L155.71 20.8133C155.893 20.8883 156.022 20.9674 156.102 21.0549C156.181 21.1424 156.218 21.2799 156.218 21.4716V24.7425C156.218 25.4008 156.064 25.9757 155.752 26.4674C155.443 26.9591 155.006 27.3382 154.452 27.6091C153.893 27.8799 153.239 28.0133 152.485 28.0133L152.497 28.0216Z" fill="white"/>
<path d="M149.414 16.08V14.5008H152.089C152.51 14.5008 152.839 14.5717 153.072 14.7092C153.039 14.5883 153.027 14.4508 153.027 14.2967C153.027 13.7967 153.202 13.3758 153.552 13.0383C153.902 12.7008 154.343 12.5342 154.872 12.5342C155.402 12.5342 155.852 12.705 156.206 13.0425C156.56 13.38 156.731 13.8092 156.731 14.3217C156.731 14.8342 156.552 15.2717 156.197 15.5967C155.843 15.9217 155.368 16.0842 154.777 16.0842H149.414V16.08ZM154.872 14.9801C155.06 14.9801 155.218 14.9175 155.347 14.7883C155.472 14.6591 155.535 14.5008 155.535 14.305C155.535 14.1092 155.472 13.9509 155.347 13.8217C155.222 13.6925 155.064 13.6301 154.872 13.6301C154.681 13.6301 154.527 13.6925 154.397 13.8217C154.272 13.9509 154.21 14.1092 154.21 14.305C154.21 14.5008 154.272 14.6591 154.397 14.7883C154.522 14.9175 154.681 14.9801 154.872 14.9801Z" fill="white"/>
<path d="M159.311 27.9009V23.6217H158.527V22.4008H160.077C160.715 22.4008 161.036 22.7217 161.036 23.3592V25.9884H161.107L162.877 24.1176H163.257L165.027 25.9884H165.098V21.6217C165.098 21.3342 165.065 21.0926 164.998 20.9009C164.932 20.7092 164.844 20.555 164.732 20.4425C164.173 20.7925 163.473 20.9675 162.636 20.9675C161.498 20.9675 160.636 20.7217 160.04 20.23C159.448 19.7384 159.148 19.0509 159.148 18.1634V16.7842H160.852V18.1258C160.852 18.6133 161.015 18.9967 161.34 19.2675C161.665 19.5383 162.123 19.6759 162.711 19.6759C163.298 19.6759 163.744 19.5634 164.061 19.3342C164.377 19.1051 164.536 18.7842 164.536 18.3675V17.8592H166.298V18.4508C166.298 19.005 166.115 19.4051 165.748 19.6509V19.6842C166.081 19.8258 166.344 20.0551 166.536 20.3676C166.727 20.6801 166.827 21.1093 166.827 21.6509V27.8967H165.111L163.094 25.7467H163.048L161.032 27.8967H159.315L159.311 27.9009Z" fill="white"/>
<path d="M171.121 16.7884C170.596 16.7884 170.159 16.6759 169.813 16.455C169.467 16.2342 169.192 15.9426 168.996 15.5801L170.113 14.7634C170.284 15.1884 170.575 15.4009 170.988 15.4009C171.221 15.4009 171.404 15.3384 171.538 15.2092C171.671 15.08 171.738 14.9009 171.738 14.6676V12.5259H173.375V14.8301C173.375 15.4551 173.171 15.9342 172.763 16.2759C172.354 16.6175 171.804 16.7884 171.113 16.7884H171.121ZM171.913 28.0093C171.196 28.0093 170.671 27.8259 170.342 27.4634C170.013 27.1009 169.846 26.6259 169.846 26.0384V20.0676C169.846 19.2884 170.042 18.7175 170.434 18.355C170.825 17.9884 171.363 17.8092 172.042 17.8092C172.234 17.8092 172.413 17.8175 172.579 17.8342C172.742 17.8509 172.896 17.8718 173.038 17.9009V19.4509C172.934 19.4301 172.834 19.4134 172.746 19.405C172.659 19.3925 172.554 19.3884 172.442 19.3884C171.867 19.3884 171.579 19.6759 171.579 20.2467V25.8509C171.579 26.1175 171.646 26.3093 171.775 26.4218C171.904 26.5343 172.1 26.5884 172.354 26.5884C172.538 26.5884 172.713 26.5634 172.888 26.5134V27.8634C172.775 27.9092 172.613 27.9467 172.404 27.9759C172.196 28.0051 172.034 28.0175 171.917 28.0175L171.913 28.0093Z" fill="white"/>
<path d="M178.654 32.5633C177.637 32.5633 176.821 32.305 176.208 31.7925C175.596 31.28 175.287 30.6008 175.287 29.7508V21.5633L174.316 21.13V19.98C174.316 19.28 174.483 18.7508 174.816 18.3925C175.15 18.0342 175.679 17.855 176.4 17.855H177.429V19.43H176.558C175.971 19.43 175.675 19.6924 175.675 20.2174V20.4758L176.504 20.805C176.683 20.8758 176.812 20.9549 176.891 21.0424C176.971 21.1299 177.012 21.2674 177.012 21.4633V29.6675C177.012 30.105 177.162 30.4591 177.466 30.7258C177.771 30.9924 178.162 31.1259 178.654 31.1259C179.146 31.1259 179.537 30.9924 179.837 30.7258C180.137 30.4591 180.287 30.1092 180.287 29.6675V28.7259H182.021V29.7425C182.021 30.5925 181.712 31.2716 181.1 31.7841C180.487 32.2966 179.671 32.555 178.654 32.555V32.5633Z" fill="white"/>
<path d="M184.13 28.0216C183.376 28.0216 182.718 27.8882 182.159 27.6174C181.601 27.3466 181.164 26.9674 180.855 26.4757C180.547 25.9841 180.389 25.4091 180.389 24.7508V21.5716L179.422 21.1383V19.9883C179.422 19.2883 179.589 18.7591 179.918 18.4008C180.251 18.0425 180.776 17.8633 181.505 17.8633H182.534V19.4383H181.664C181.072 19.4383 180.776 19.7007 180.776 20.2257V20.4841L181.609 20.8133C181.793 20.8883 181.922 20.9674 182.001 21.0549C182.08 21.1424 182.118 21.2799 182.118 21.4716V24.6633C182.118 25.2258 182.301 25.6842 182.668 26.0342C183.034 26.3842 183.518 26.5591 184.122 26.5591C184.726 26.5591 185.205 26.3841 185.572 26.0382C185.939 25.6924 186.122 25.2341 186.122 24.6675V21.5716L185.155 21.1383V19.9883C185.155 19.2883 185.322 18.7591 185.651 18.4008C185.984 18.0425 186.509 17.8633 187.239 17.8633H188.268V19.4383H187.397C186.805 19.4383 186.509 19.7007 186.509 20.2257V20.4841L187.343 20.8133C187.526 20.8883 187.655 20.9674 187.734 21.0549C187.814 21.1424 187.851 21.2799 187.851 21.4716V24.7425C187.851 25.4008 187.697 25.9757 187.384 26.4674C187.076 26.9591 186.639 27.3382 186.084 27.6091C185.526 27.8799 184.872 28.0133 184.118 28.0133L184.13 28.0216Z" fill="white"/>
<path d="M190.94 27.9009V23.6217H190.156V22.4008H191.706C192.344 22.4008 192.665 22.7217 192.665 23.3592V25.9884H192.735L194.506 24.1176H194.885L196.656 25.9884H196.727V21.6217C196.727 21.3342 196.694 21.0926 196.627 20.9009C196.56 20.7092 196.473 20.555 196.36 20.4425C195.802 20.7925 195.102 20.9675 194.265 20.9675C193.127 20.9675 192.265 20.7217 191.669 20.23C191.077 19.7384 190.777 19.0509 190.777 18.1634V16.7842H192.481V18.1258C192.481 18.6133 192.644 18.9967 192.969 19.2675C193.294 19.5383 193.752 19.6759 194.34 19.6759C194.927 19.6759 195.373 19.5634 195.69 19.3342C196.006 19.1051 196.165 18.7842 196.165 18.3675V17.8592H197.927V18.4508C197.927 19.005 197.744 19.4051 197.377 19.6509V19.6842C197.71 19.8258 197.973 20.0551 198.165 20.3676C198.356 20.6801 198.456 21.1093 198.456 21.6509V27.8967H196.74L194.723 25.7467H194.677L192.66 27.8967H190.944L190.94 27.9009Z" fill="white"/>
<path d="M203.539 28.0092C202.823 28.0092 202.298 27.8258 201.968 27.4633C201.639 27.1008 201.473 26.6257 201.473 26.0382V20.0675C201.473 19.2883 201.668 18.7174 202.06 18.3549C202.452 17.9883 202.989 17.8091 203.668 17.8091C203.86 17.8091 204.039 17.8174 204.206 17.8341C204.368 17.8508 204.523 17.8717 204.664 17.9008V19.4508C204.56 19.43 204.46 19.4133 204.373 19.4049C204.285 19.3924 204.181 19.3883 204.068 19.3883C203.493 19.3883 203.206 19.6758 203.206 20.2466V25.8508C203.206 26.1174 203.273 26.3092 203.402 26.4217C203.531 26.5342 203.727 26.5883 203.981 26.5883C204.164 26.5883 204.339 26.5633 204.514 26.5133V27.8633C204.402 27.9091 204.239 27.9466 204.031 27.9758C203.823 28.005 203.66 28.0174 203.543 28.0174L203.539 28.0092Z" fill="white"/>
<path d="M206.746 27.9008V24.4425H208.425V25.0883H208.571C208.991 25.0883 209.346 25.1633 209.633 25.3174C209.921 25.4716 210.171 25.6508 210.387 25.8508C210.604 26.0508 210.816 26.2299 211.025 26.3841C211.233 26.5383 211.475 26.6133 211.746 26.6133C211.987 26.6133 212.171 26.5383 212.291 26.3925C212.416 26.2466 212.479 26.055 212.479 25.8175V23.8217H210.425C209.254 23.8217 208.316 23.58 207.616 23.0925C206.916 22.605 206.566 21.8758 206.566 20.8966C206.566 19.9175 206.904 19.1925 207.575 18.6092C208.246 18.0258 209.171 17.7383 210.346 17.7383C211.521 17.7383 212.466 18.0342 213.158 18.63C213.85 19.2258 214.196 20.0758 214.196 21.1841H212.466C212.466 20.5175 212.275 20.0133 211.896 19.6675C211.516 19.3217 210.996 19.1508 210.341 19.1508C209.741 19.1508 209.254 19.3091 208.875 19.6216C208.496 19.9341 208.308 20.3675 208.308 20.9217C208.308 21.4092 208.483 21.8133 208.837 22.1216C209.191 22.4341 209.741 22.5883 210.496 22.5883H214.2V25.9258C214.2 26.5342 214.025 27.0299 213.675 27.4133C213.325 27.7966 212.787 27.9883 212.058 27.9883C211.571 27.9883 211.166 27.9091 210.858 27.7466C210.546 27.5883 210.279 27.4008 210.05 27.1924C209.825 26.9841 209.596 26.7967 209.362 26.6383C209.133 26.48 208.85 26.3966 208.521 26.3966H208.416V27.8883H206.737L206.746 27.9008Z" fill="white"/>
<path d="M218.416 21.4801C217.845 21.4801 217.374 21.3051 217.003 20.9509C216.633 20.5968 216.449 20.1593 216.449 19.6385C216.449 19.1176 216.633 18.6801 217.003 18.3301C217.374 17.9801 217.841 17.8052 218.416 17.8052C218.991 17.8052 219.466 17.9801 219.833 18.3301C220.199 18.6801 220.387 19.1176 220.387 19.6385C220.387 20.1593 220.203 20.5968 219.833 20.9509C219.462 21.3051 218.991 21.4801 218.416 21.4801ZM218.416 27.9593C217.845 27.9593 217.374 27.7843 217.003 27.4343C216.633 27.0843 216.449 26.6468 216.449 26.126C216.449 25.6052 216.633 25.1676 217.003 24.8134C217.374 24.4593 217.841 24.2843 218.416 24.2843C218.991 24.2843 219.466 24.4593 219.833 24.8134C220.203 25.1676 220.387 25.6052 220.387 26.126C220.387 26.6468 220.203 27.0843 219.833 27.4343C219.462 27.7843 218.991 27.9593 218.416 27.9593ZM218.416 20.3885C218.616 20.3885 218.787 20.3176 218.92 20.1718C219.053 20.026 219.124 19.851 219.124 19.6343C219.124 19.4176 219.058 19.2426 218.92 19.101C218.783 18.9593 218.616 18.8884 218.416 18.8884C218.216 18.8884 218.053 18.9593 217.916 19.101C217.778 19.2426 217.712 19.4218 217.712 19.6343C217.712 19.8468 217.778 20.026 217.916 20.1718C218.053 20.3176 218.22 20.3885 218.416 20.3885ZM218.416 26.8677C218.616 26.8677 218.787 26.7968 218.92 26.6552C219.058 26.5135 219.124 26.3343 219.124 26.1218C219.124 25.9093 219.058 25.7301 218.92 25.5843C218.783 25.4385 218.616 25.3676 218.416 25.3676C218.216 25.3676 218.049 25.4385 217.912 25.5843C217.774 25.7301 217.712 25.9052 217.712 26.1218C217.712 26.3385 217.778 26.5135 217.912 26.6552C218.045 26.7968 218.212 26.8677 218.416 26.8677Z" fill="white"/>
</svg>
