<svg width="247" height="42" viewBox="0 0 247 42" fill="none" xmlns="http://www.w3.org/2000/svg">
<path d="M225.842 0.0410156H21.2591C9.75318 0.0410156 0.425781 9.36842 0.425781 20.8743C0.425781 32.3803 9.75318 41.7077 21.2591 41.7077H225.842C237.348 41.7077 246.676 32.3803 246.676 20.8743C246.676 9.36842 237.348 0.0410156 225.842 0.0410156Z" fill="#02B14F"/>
<path d="M28.0899 15.9827C27.5649 15.9827 27.1274 15.8702 26.7815 15.6494C26.4357 15.4285 26.1607 15.1369 25.9648 14.7744L27.0815 13.9577C27.2523 14.3827 27.544 14.5952 27.9565 14.5952C28.1899 14.5952 28.3732 14.5327 28.5065 14.4035C28.6399 14.2744 28.7065 14.0952 28.7065 13.8618V11.7202H30.344V14.0244C30.344 14.6494 30.1399 15.1285 29.7315 15.4702C29.3232 15.8119 28.7732 15.9827 28.0815 15.9827H28.0899ZM28.8815 27.2035C28.1648 27.2035 27.6399 27.0202 27.3107 26.6577C26.9815 26.2952 26.8149 25.8202 26.8149 25.2327V19.2618C26.8149 18.4827 27.0107 17.9119 27.4023 17.5494C27.794 17.1827 28.3315 17.0035 29.0107 17.0035C29.2023 17.0035 29.3815 17.0119 29.5482 17.0285C29.7107 17.0452 29.8648 17.066 30.0065 17.0952V18.6452C29.9023 18.6243 29.8023 18.6077 29.7148 18.5994C29.6273 18.5869 29.5232 18.5827 29.4107 18.5827C28.8357 18.5827 28.5482 18.8702 28.5482 19.4411V25.0452C28.5482 25.3119 28.6149 25.5035 28.744 25.616C28.8732 25.7285 29.069 25.7827 29.3232 25.7827C29.5065 25.7827 29.6815 25.7577 29.8565 25.7077V27.0577C29.744 27.1036 29.5815 27.1411 29.3732 27.1702C29.1648 27.1994 29.0023 27.2119 28.8857 27.2119L28.8815 27.2035Z" fill="white"/>
<path d="M36.2453 27.2161C35.0828 27.2161 34.162 26.9203 33.4911 26.3328C32.8203 25.7412 32.487 24.9661 32.487 23.9995V20.762L31.5703 20.287V19.2619C31.5703 18.5286 31.7412 17.9786 32.0787 17.6119C32.4162 17.2453 32.9703 17.062 33.7412 17.062H40.0495V18.6369H33.7703C33.2453 18.6369 32.9828 18.8911 32.9828 19.3995V19.6953L33.7036 20.0161C33.887 20.0994 34.0161 20.187 34.0953 20.2745C34.1745 20.362 34.212 20.5037 34.212 20.6912V23.9287C34.212 24.487 34.3911 24.9453 34.7495 25.2953C35.1078 25.6453 35.6037 25.8204 36.2453 25.8204C36.887 25.8204 37.3786 25.6453 37.737 25.2953C38.0953 24.9453 38.2745 24.487 38.2745 23.9287V21.7703C38.2745 21.3703 38.0162 21.1703 37.4912 21.1703C37.3078 21.1703 37.1328 21.1953 36.9578 21.2494V19.9495C37.0745 19.9036 37.237 19.8661 37.4453 19.837C37.6495 19.8078 37.812 19.7953 37.937 19.7953C38.6537 19.7953 39.1786 19.9662 39.5078 20.2995C39.837 20.637 40.0036 21.0787 40.0036 21.6203V23.9995C40.0036 24.9661 39.6661 25.7453 38.9953 26.3328C38.3245 26.9245 37.4078 27.2161 36.2453 27.2161Z" fill="white"/>
<path d="M43.0234 18.6326V17.0576H50.6568V18.6326H43.0234ZM43.0818 23.0784C43.0818 22.4118 43.2359 21.8285 43.5443 21.3326C43.8526 20.8368 44.2901 20.4493 44.8526 20.1743C45.4151 19.8993 46.0818 19.7618 46.8401 19.7618C47.5985 19.7618 48.2651 19.8993 48.8276 20.1743C49.3901 20.4493 49.8276 20.8368 50.1359 21.3326C50.4443 21.8285 50.5984 22.4118 50.5984 23.0784V27.0951H48.8693V23.1576C48.8693 22.5826 48.6818 22.116 48.3068 21.7535C47.9318 21.3951 47.4443 21.2159 46.8401 21.2159C46.236 21.2159 45.7484 21.3951 45.3734 21.7535C44.9984 22.1118 44.811 22.5784 44.811 23.1576V27.0951H43.0818V23.0784Z" fill="white"/>
<path d="M54.3625 27.2037C53.9167 27.2037 53.4833 27.1537 53.0625 27.0495V25.7162C53.1958 25.7496 53.3333 25.7704 53.4667 25.7912C53.6042 25.8079 53.7667 25.8162 53.9542 25.8162C54.3833 25.8162 54.6 25.562 54.6 25.0579V20.8328L53.225 20.3996V19.1496C53.225 18.4329 53.3958 17.9037 53.7375 17.562C54.0792 17.2245 54.6292 17.0537 55.3917 17.0537H56.5875V18.6287H55.5042C54.9083 18.6287 54.6125 18.8912 54.6125 19.4162V19.6162L55.8208 19.9579C56.1583 20.0579 56.3292 20.2828 56.3292 20.6328V25.2662C56.3292 25.8787 56.1625 26.3537 55.8292 26.6912C55.4958 27.0287 55.0083 27.1953 54.3625 27.1953V27.2037Z" fill="white"/>
<path d="M55.0831 15.4536C54.4581 15.4536 53.9581 15.262 53.5747 14.8828C53.1956 14.5036 53.0039 14.0286 53.0039 13.4661C53.0039 12.9036 53.1956 12.4244 53.5747 12.0411C53.9539 11.6578 54.4581 11.4702 55.0831 11.4702C55.7081 11.4702 56.2081 11.6619 56.5914 12.0411C56.9747 12.4203 57.1622 12.8952 57.1622 13.4661C57.1622 14.0369 56.9706 14.5036 56.5914 14.8828C56.2122 15.262 55.7081 15.4536 55.0831 15.4536ZM55.0831 14.3119C55.3164 14.3119 55.5081 14.2327 55.6581 14.0702C55.8081 13.9077 55.8872 13.7077 55.8872 13.4661C55.8872 13.2244 55.8122 13.0161 55.6581 12.8577C55.5081 12.6952 55.3122 12.616 55.0831 12.616C54.8539 12.616 54.6622 12.6952 54.5081 12.8577C54.3539 13.0202 54.2789 13.2244 54.2789 13.4661C54.2789 13.7077 54.3539 13.9077 54.5081 14.0702C54.6622 14.2327 54.8539 14.3119 55.0831 14.3119Z" fill="white"/>
<path d="M60.6641 15.9827C60.1391 15.9827 59.7016 15.8702 59.3557 15.6494C59.0099 15.4285 58.7349 15.1369 58.5391 14.7744L59.6558 13.9577C59.8266 14.3827 60.1182 14.5952 60.5307 14.5952C60.7641 14.5952 60.9474 14.5327 61.0807 14.4035C61.2141 14.2744 61.2807 14.0952 61.2807 13.8618V11.7202H62.9182V14.0244C62.9182 14.6494 62.7141 15.1285 62.3057 15.4702C61.8974 15.8119 61.3474 15.9827 60.6557 15.9827H60.6641ZM61.4557 27.2035C60.7391 27.2035 60.2141 27.0202 59.8849 26.6577C59.5557 26.2952 59.3891 25.8202 59.3891 25.2327V19.2618C59.3891 18.4827 59.5849 17.9119 59.9766 17.5494C60.3682 17.1827 60.9058 17.0035 61.5849 17.0035C61.7766 17.0035 61.9557 17.0119 62.1224 17.0285C62.2849 17.0452 62.4391 17.066 62.5807 17.0952V18.6452C62.4766 18.6243 62.3766 18.6077 62.2891 18.5994C62.2016 18.5869 62.0974 18.5827 61.9849 18.5827C61.4099 18.5827 61.1224 18.8702 61.1224 19.4411V25.0452C61.1224 25.3119 61.1891 25.5035 61.3182 25.616C61.4474 25.7285 61.6433 25.7827 61.8974 25.7827C62.0808 25.7827 62.2557 25.7577 62.4307 25.7077V27.0577C62.3182 27.1036 62.1558 27.1411 61.9474 27.1702C61.7391 27.1994 61.5766 27.2119 61.4599 27.2119L61.4557 27.2035Z" fill="white"/>
<path d="M66.7737 27.1576C66.057 27.1576 65.532 26.9909 65.2029 26.6534C64.8737 26.3159 64.707 25.8742 64.707 25.3325V20.1659C64.707 19.5242 64.857 18.9576 65.1612 18.4742C65.4612 17.9909 65.8862 17.6159 66.4362 17.3451C66.9862 17.0784 67.6279 16.9409 68.3695 16.9409C69.1112 16.9409 69.7695 17.0742 70.3195 17.3451C70.8695 17.6117 71.2945 17.9909 71.5987 18.4742C71.9029 18.9576 72.0529 19.5201 72.0529 20.1659V23.9117C72.0529 24.4617 72.2278 24.9034 72.5778 25.2451C72.9278 25.5867 73.3862 25.7575 73.9529 25.7575C74.5195 25.7575 74.982 25.5867 75.3362 25.2451C75.6904 24.9034 75.8654 24.4576 75.8654 23.9117V20.7701L74.8945 20.3367V19.1867C74.8945 18.4867 75.0612 17.9575 75.3945 17.5992C75.7278 17.2408 76.257 17.0618 76.9778 17.0618H78.007V18.6367H77.1362C76.5445 18.6367 76.2487 18.8992 76.2487 19.4242V19.6825L77.082 20.0117C77.2695 20.0867 77.3987 20.1659 77.4778 20.2534C77.5528 20.3409 77.5945 20.4784 77.5945 20.6701V23.9951C77.5945 24.6367 77.4445 25.2034 77.1487 25.6867C76.8529 26.1701 76.4279 26.5451 75.882 26.8159C75.3362 27.0826 74.6945 27.2201 73.957 27.2201C73.2195 27.2201 72.5779 27.0867 72.0362 26.8159C71.4945 26.5492 71.0737 26.1701 70.7737 25.6867C70.4737 25.2034 70.3279 24.6409 70.3279 23.9951V20.2492C70.3279 19.6992 70.1487 19.2576 69.7903 18.9159C69.432 18.5742 68.9612 18.4034 68.3737 18.4034C67.7862 18.4034 67.332 18.5742 66.9737 18.9159C66.6154 19.2576 66.4362 19.7034 66.4362 20.2492V25.1784C66.4362 25.5784 66.6945 25.7742 67.2195 25.7742C67.4029 25.7742 67.5779 25.7493 67.7529 25.6993V26.9992C67.6404 27.045 67.4778 27.0825 67.2695 27.1117C67.0612 27.1409 66.8987 27.1534 66.7737 27.1534V27.1576Z" fill="white"/>
<path d="M80.6094 18.6326V17.0576H88.2427V18.6326H80.6094ZM80.6677 23.0784C80.6677 22.4118 80.8219 21.8285 81.1302 21.3326C81.4385 20.8368 81.876 20.4493 82.4385 20.1743C83.001 19.8993 83.6677 19.7618 84.426 19.7618C85.1844 19.7618 85.851 19.8993 86.4135 20.1743C86.976 20.4493 87.4135 20.8368 87.7219 21.3326C88.0302 21.8285 88.1844 22.4118 88.1844 23.0784V27.0951H86.4552V23.1576C86.4552 22.5826 86.2677 22.116 85.8927 21.7535C85.5177 21.3951 85.0302 21.2159 84.426 21.2159C83.8219 21.2159 83.3344 21.3951 82.9594 21.7535C82.5844 22.1118 82.3969 22.5784 82.3969 23.1576V27.0951H80.6677V23.0784Z" fill="white"/>
<path d="M91.2073 18.6326V17.0576H100.895C101.849 17.0576 102.595 17.2951 103.132 17.7659C103.67 18.2368 103.936 18.9576 103.936 19.9242V27.0992H102.207V20.0367C102.207 19.1034 101.72 18.6326 100.745 18.6326H91.2031H91.2073ZM91.2656 23.0784C91.2656 22.4118 91.4198 21.8285 91.7281 21.3326C92.0365 20.8368 92.474 20.4493 93.0365 20.1743C93.599 19.8993 94.2656 19.7618 95.024 19.7618C95.7823 19.7618 96.449 19.8993 97.0115 20.1743C97.574 20.4493 98.0114 20.8368 98.3198 21.3326C98.6281 21.8285 98.7823 22.4118 98.7823 23.0784V27.0951H97.0531V23.1576C97.0531 22.5826 96.8657 22.116 96.4907 21.7535C96.1157 21.3951 95.6281 21.2159 95.024 21.2159C94.4198 21.2159 93.9323 21.3951 93.5573 21.7535C93.1823 22.1118 92.9948 22.5784 92.9948 23.1576V27.0951H91.2656V23.0784Z" fill="white"/>
<path d="M107.698 27.2037C107.253 27.2037 106.819 27.1537 106.398 27.0495V25.7162C106.532 25.7496 106.669 25.7704 106.803 25.7912C106.94 25.8079 107.103 25.8162 107.29 25.8162C107.719 25.8162 107.936 25.562 107.936 25.0579V20.8328L106.561 20.3996V19.1496C106.561 18.4329 106.732 17.9037 107.073 17.562C107.415 17.2245 107.965 17.0537 108.728 17.0537H109.923V18.6287H108.84C108.244 18.6287 107.948 18.8912 107.948 19.4162V19.6162L109.157 19.9579C109.494 20.0579 109.665 20.2828 109.665 20.6328V25.2662C109.665 25.8787 109.498 26.3537 109.165 26.6912C108.832 27.0287 108.344 27.1953 107.698 27.1953V27.2037Z" fill="white"/>
<path d="M116.264 27.2159C115.114 27.2159 114.21 26.9284 113.543 26.3534C112.876 25.7784 112.543 24.9993 112.543 24.0118V21.7867H116.289C117.035 21.7867 117.58 21.6326 117.926 21.3201C118.272 21.0118 118.443 20.6285 118.443 20.1743C118.443 19.5785 118.255 19.1243 117.88 18.8118C117.505 18.4993 117.018 18.3451 116.418 18.3451C115.764 18.3451 115.243 18.5159 114.86 18.8617C114.476 19.2076 114.285 19.7118 114.285 20.3785H112.555C112.555 19.2701 112.901 18.4201 113.597 17.8242C114.293 17.2326 115.23 16.9326 116.422 16.9326C117.164 16.9326 117.818 17.0534 118.389 17.2992C118.955 17.5451 119.401 17.9034 119.722 18.3743C120.043 18.8493 120.201 19.4242 120.201 20.1034C120.201 20.9701 119.881 21.6743 119.243 22.2118C118.606 22.7493 117.63 23.0159 116.318 23.0159H114.268V23.9993C114.268 24.5451 114.451 24.9826 114.814 25.3117C115.18 25.6451 115.664 25.8076 116.268 25.8076C116.872 25.8076 117.364 25.6409 117.735 25.3117C118.101 24.9826 118.289 24.5409 118.289 23.9993V23.6784H120.018V24.0034C120.018 24.9909 119.68 25.7701 119.01 26.3451C118.335 26.9201 117.422 27.2076 116.268 27.2076L116.264 27.2159Z" fill="white"/>
<path d="M113.211 15.2784V13.6909H117.669C118.282 13.6909 118.765 13.7576 119.123 13.8909C119.482 14.0242 119.782 14.216 120.032 14.4576V15.2743H113.215L113.211 15.2784Z" fill="white"/>
<path d="M123.055 18.6326V17.0576H130.688V18.6326H123.055ZM125.18 27.1534C124.463 27.1534 123.938 26.9868 123.609 26.6493C123.28 26.3118 123.113 25.8701 123.113 25.3284V23.0868C123.113 22.4201 123.267 21.8368 123.576 21.341C123.884 20.8451 124.321 20.4576 124.884 20.1784C125.446 19.8993 126.113 19.7618 126.871 19.7618C127.63 19.7618 128.296 19.8993 128.859 20.1784C129.421 20.4576 129.859 20.8451 130.167 21.341C130.475 21.8368 130.63 22.4201 130.63 23.0868V27.0992H128.9V23.1701C128.9 22.5909 128.713 22.12 128.338 21.7659C127.963 21.4075 127.475 21.2285 126.871 21.2285C126.267 21.2285 125.78 21.4075 125.405 21.7659C125.03 22.1242 124.842 22.5909 124.842 23.1701V25.1826C124.842 25.5826 125.1 25.7784 125.625 25.7784C125.809 25.7784 125.984 25.7535 126.159 25.7035V27.0034C126.046 27.0492 125.884 27.0867 125.675 27.1159C125.467 27.1451 125.305 27.1576 125.18 27.1576V27.1534Z" fill="white"/>
<path d="M137.186 27.2159C136.036 27.2159 135.131 26.9284 134.465 26.3534C133.798 25.7784 133.465 24.9993 133.465 24.0118V21.7867H137.211C137.957 21.7867 138.502 21.6326 138.848 21.3201C139.194 21.0118 139.365 20.6285 139.365 20.1743C139.365 19.5785 139.177 19.1243 138.802 18.8118C138.427 18.4993 137.94 18.3451 137.34 18.3451C136.686 18.3451 136.165 18.5159 135.781 18.8617C135.398 19.2076 135.206 19.7118 135.206 20.3785H133.477C133.477 19.2701 133.823 18.4201 134.519 17.8242C135.215 17.2326 136.152 16.9326 137.344 16.9326C138.086 16.9326 138.74 17.0534 139.311 17.2992C139.877 17.5451 140.323 17.9034 140.644 18.3743C140.965 18.8493 141.123 19.4242 141.123 20.1034C141.123 20.9701 140.802 21.6743 140.165 22.2118C139.527 22.7493 138.552 23.0159 137.24 23.0159H135.19V23.9993C135.19 24.5451 135.373 24.9826 135.736 25.3117C136.102 25.6451 136.586 25.8076 137.19 25.8076C137.794 25.8076 138.286 25.6409 138.656 25.3117C139.023 24.9826 139.211 24.5409 139.211 23.9993V23.6784H140.94V24.0034C140.94 24.9909 140.602 25.7701 139.932 26.3451C139.257 26.9201 138.344 27.2076 137.19 27.2076L137.186 27.2159Z" fill="white"/>
<path d="M137.47 15.4536C136.845 15.4536 136.345 15.262 135.961 14.8828C135.582 14.5036 135.391 14.0286 135.391 13.4661C135.391 12.9036 135.582 12.4244 135.961 12.0411C136.341 11.6578 136.845 11.4702 137.47 11.4702C138.095 11.4702 138.595 11.6619 138.978 12.0411C139.361 12.4203 139.549 12.8952 139.549 13.4661C139.549 14.0369 139.357 14.5036 138.978 14.8828C138.599 15.262 138.095 15.4536 137.47 15.4536ZM137.47 14.3119C137.703 14.3119 137.895 14.2327 138.045 14.0702C138.195 13.9077 138.274 13.7077 138.274 13.4661C138.274 13.2244 138.199 13.0161 138.045 12.8577C137.895 12.6952 137.699 12.616 137.47 12.616C137.241 12.616 137.049 12.6952 136.895 12.8577C136.741 13.0202 136.666 13.2244 136.666 13.4661C136.666 13.7077 136.741 13.9077 136.895 14.0702C137.049 14.2327 137.241 14.3119 137.47 14.3119Z" fill="white"/>
<path d="M147.408 31.762C146.391 31.762 145.574 31.5037 144.962 30.9912C144.349 30.4787 144.041 29.7995 144.041 28.9495V20.762L143.07 20.3287V19.1786C143.07 18.4786 143.237 17.9496 143.57 17.5912C143.904 17.2329 144.433 17.0537 145.154 17.0537H146.183V18.6287H145.312C144.724 18.6287 144.429 18.8912 144.429 19.4162V19.6746L145.258 20.0036C145.437 20.0745 145.566 20.1537 145.645 20.2412C145.725 20.3287 145.766 20.4662 145.766 20.662V28.8661C145.766 29.3036 145.916 29.6578 146.22 29.9245C146.525 30.1912 146.916 30.3245 147.408 30.3245C147.899 30.3245 148.291 30.1912 148.591 29.9245C148.891 29.6578 149.041 29.3078 149.041 28.8661V27.9245H150.774V28.9412C150.774 29.7912 150.466 30.4703 149.854 30.9828C149.241 31.4953 148.424 31.7537 147.408 31.7537V31.762Z" fill="white"/>
<path d="M152.88 27.2159C152.126 27.2159 151.468 27.0826 150.909 26.8117C150.351 26.5409 149.914 26.1618 149.605 25.6701C149.297 25.1784 149.139 24.6035 149.139 23.9451V20.7659L148.172 20.3326V19.1826C148.172 18.4826 148.339 17.9534 148.668 17.595C149.001 17.2367 149.526 17.0576 150.255 17.0576H151.284V18.6326H150.414C149.822 18.6326 149.526 18.8951 149.526 19.4201V19.6784L150.359 20.0075C150.543 20.0825 150.672 20.1617 150.751 20.2492C150.83 20.3367 150.868 20.4742 150.868 20.6659V23.8575C150.868 24.42 151.051 24.8784 151.418 25.2284C151.784 25.5784 152.268 25.7534 152.872 25.7534C153.476 25.7534 153.955 25.5784 154.322 25.2326C154.689 24.8867 154.872 24.4284 154.872 23.8617V20.7659L153.905 20.3326V19.1826C153.905 18.4826 154.072 17.9534 154.401 17.595C154.734 17.2367 155.259 17.0576 155.989 17.0576H157.018V18.6326H156.147C155.555 18.6326 155.259 18.8951 155.259 19.4201V19.6784L156.093 20.0075C156.276 20.0825 156.405 20.1617 156.484 20.2492C156.564 20.3367 156.601 20.4742 156.601 20.6659V23.9368C156.601 24.5951 156.447 25.1701 156.134 25.6617C155.826 26.1534 155.389 26.5326 154.834 26.8034C154.276 27.0742 153.622 27.2076 152.868 27.2076L152.88 27.2159Z" fill="white"/>
<path d="M149.797 15.2787V13.6996H152.472C152.893 13.6996 153.222 13.7704 153.455 13.9079C153.422 13.7871 153.409 13.6496 153.409 13.4954C153.409 12.9954 153.584 12.5746 153.934 12.2371C154.284 11.8996 154.726 11.7329 155.255 11.7329C155.784 11.7329 156.234 11.9037 156.589 12.2412C156.943 12.5787 157.114 13.0079 157.114 13.5204C157.114 14.0329 156.934 14.4703 156.58 14.7953C156.226 15.1203 155.751 15.2829 155.159 15.2829H149.797V15.2787ZM155.255 14.1787C155.443 14.1787 155.601 14.1162 155.73 13.987C155.855 13.8579 155.918 13.6996 155.918 13.5037C155.918 13.3079 155.855 13.1495 155.73 13.0203C155.605 12.8912 155.447 12.8287 155.255 12.8287C155.064 12.8287 154.909 12.8912 154.78 13.0203C154.655 13.1495 154.593 13.3079 154.593 13.5037C154.593 13.6996 154.655 13.8579 154.78 13.987C154.905 14.1162 155.064 14.1787 155.255 14.1787Z" fill="white"/>
<path d="M159.693 27.0952V22.816H158.91V21.5952H160.46C161.098 21.5952 161.418 21.916 161.418 22.5535V25.1827H161.489L163.26 23.3119H163.639L165.41 25.1827H165.481V20.8161C165.481 20.5286 165.448 20.2868 165.381 20.0951C165.314 19.9035 165.227 19.7494 165.114 19.6369C164.556 19.9869 163.856 20.1619 163.018 20.1619C161.881 20.1619 161.018 19.916 160.423 19.4244C159.831 18.9327 159.531 18.2452 159.531 17.3577V15.9785H161.235V17.3202C161.235 17.8077 161.398 18.191 161.723 18.4618C162.048 18.7327 162.506 18.8702 163.094 18.8702C163.681 18.8702 164.127 18.7577 164.444 18.5286C164.76 18.2994 164.919 17.9785 164.919 17.5619V17.0535H166.681V17.6452C166.681 18.1993 166.498 18.5993 166.131 18.8451V18.8785C166.464 19.0202 166.727 19.2494 166.918 19.5619C167.11 19.8744 167.21 20.3035 167.21 20.8452V27.091H165.494L163.477 24.941H163.431L161.414 27.091H159.698L159.693 27.0952Z" fill="white"/>
<path d="M171.504 15.9827C170.979 15.9827 170.541 15.8702 170.196 15.6494C169.85 15.4285 169.575 15.1369 169.379 14.7744L170.496 13.9577C170.666 14.3827 170.958 14.5952 171.371 14.5952C171.604 14.5952 171.787 14.5327 171.921 14.4035C172.054 14.2744 172.121 14.0952 172.121 13.8618V11.7202H173.758V14.0244C173.758 14.6494 173.554 15.1285 173.146 15.4702C172.737 15.8119 172.187 15.9827 171.496 15.9827H171.504ZM172.296 27.2035C171.579 27.2035 171.054 27.0202 170.725 26.6577C170.396 26.2952 170.229 25.8202 170.229 25.2327V19.2618C170.229 18.4827 170.425 17.9119 170.816 17.5494C171.208 17.1827 171.746 17.0035 172.425 17.0035C172.616 17.0035 172.796 17.0119 172.962 17.0285C173.125 17.0452 173.279 17.066 173.421 17.0952V18.6452C173.316 18.6243 173.216 18.6077 173.129 18.5994C173.041 18.5869 172.937 18.5827 172.825 18.5827C172.25 18.5827 171.962 18.8702 171.962 19.4411V25.0452C171.962 25.3119 172.029 25.5035 172.158 25.616C172.287 25.7285 172.483 25.7827 172.737 25.7827C172.921 25.7827 173.096 25.7577 173.271 25.7077V27.0577C173.158 27.1036 172.996 27.1411 172.787 27.1702C172.579 27.1994 172.416 27.2119 172.3 27.2119L172.296 27.2035Z" fill="white"/>
<path d="M179.037 31.762C178.02 31.762 177.203 31.5037 176.591 30.9912C175.978 30.4787 175.67 29.7995 175.67 28.9495V20.762L174.699 20.3287V19.1786C174.699 18.4786 174.866 17.9496 175.199 17.5912C175.533 17.2329 176.062 17.0537 176.783 17.0537H177.812V18.6287H176.941C176.353 18.6287 176.058 18.8912 176.058 19.4162V19.6746L176.887 20.0036C177.066 20.0745 177.195 20.1537 177.274 20.2412C177.353 20.3287 177.395 20.4662 177.395 20.662V28.8661C177.395 29.3036 177.545 29.6578 177.849 29.9245C178.153 30.1912 178.545 30.3245 179.037 30.3245C179.528 30.3245 179.92 30.1912 180.22 29.9245C180.52 29.6578 180.67 29.3078 180.67 28.8661V27.9245H182.403V28.9412C182.403 29.7912 182.095 30.4703 181.483 30.9828C180.87 31.4953 180.053 31.7537 179.037 31.7537V31.762Z" fill="white"/>
<path d="M184.509 27.2159C183.755 27.2159 183.097 27.0826 182.538 26.8117C181.98 26.5409 181.542 26.1618 181.234 25.6701C180.926 25.1784 180.767 24.6035 180.767 23.9451V20.7659L179.801 20.3326V19.1826C179.801 18.4826 179.967 17.9534 180.297 17.595C180.63 17.2367 181.155 17.0576 181.884 17.0576H182.913V18.6326H182.042C181.451 18.6326 181.155 18.8951 181.155 19.4201V19.6784L181.988 20.0075C182.172 20.0825 182.301 20.1617 182.38 20.2492C182.459 20.3367 182.497 20.4742 182.497 20.6659V23.8575C182.497 24.42 182.68 24.8784 183.047 25.2284C183.413 25.5784 183.897 25.7534 184.501 25.7534C185.105 25.7534 185.584 25.5784 185.951 25.2326C186.317 24.8867 186.501 24.4284 186.501 23.8617V20.7659L185.534 20.3326V19.1826C185.534 18.4826 185.701 17.9534 186.03 17.595C186.363 17.2367 186.888 17.0576 187.617 17.0576H188.647V18.6326H187.776C187.184 18.6326 186.888 18.8951 186.888 19.4201V19.6784L187.722 20.0075C187.905 20.0825 188.034 20.1617 188.113 20.2492C188.192 20.3367 188.23 20.4742 188.23 20.6659V23.9368C188.23 24.5951 188.076 25.1701 187.763 25.6617C187.455 26.1534 187.017 26.5326 186.463 26.8034C185.905 27.0742 185.251 27.2076 184.497 27.2076L184.509 27.2159Z" fill="white"/>
<path d="M191.322 27.0952V22.816H190.539V21.5952H192.089C192.727 21.5952 193.047 21.916 193.047 22.5535V25.1827H193.118L194.889 23.3119H195.268L197.039 25.1827H197.11V20.8161C197.11 20.5286 197.077 20.2868 197.01 20.0951C196.943 19.9035 196.856 19.7494 196.743 19.6369C196.185 19.9869 195.485 20.1619 194.647 20.1619C193.51 20.1619 192.647 19.916 192.052 19.4244C191.46 18.9327 191.16 18.2452 191.16 17.3577V15.9785H192.864V17.3202C192.864 17.8077 193.027 18.191 193.352 18.4618C193.677 18.7327 194.135 18.8702 194.722 18.8702C195.31 18.8702 195.756 18.7577 196.072 18.5286C196.389 18.2994 196.547 17.9785 196.547 17.5619V17.0535H198.31V17.6452C198.31 18.1993 198.127 18.5993 197.76 18.8451V18.8785C198.093 19.0202 198.356 19.2494 198.547 19.5619C198.739 19.8744 198.839 20.3035 198.839 20.8452V27.091H197.122L195.106 24.941H195.06L193.043 27.091H191.327L191.322 27.0952Z" fill="white"/>
<path d="M203.922 27.2034C203.205 27.2034 202.68 27.0201 202.351 26.6576C202.022 26.2951 201.855 25.8201 201.855 25.2326V19.2617C201.855 18.4826 202.051 17.9118 202.443 17.5493C202.835 17.1826 203.372 17.0034 204.051 17.0034C204.243 17.0034 204.422 17.0118 204.589 17.0284C204.751 17.0451 204.905 17.0659 205.047 17.0951V18.6451C204.943 18.6242 204.843 18.6076 204.755 18.5993C204.668 18.5868 204.564 18.5826 204.451 18.5826C203.876 18.5826 203.589 18.8701 203.589 19.441V25.0451C203.589 25.3118 203.655 25.5034 203.785 25.6159C203.914 25.7284 204.11 25.7826 204.364 25.7826C204.547 25.7826 204.722 25.7576 204.897 25.7076V27.0576C204.785 27.1035 204.622 27.141 204.414 27.1701C204.205 27.1993 204.043 27.2118 203.926 27.2118L203.922 27.2034Z" fill="white"/>
<path d="M207.128 27.0951V23.6367H208.808V24.2826H208.953C209.374 24.2826 209.728 24.3576 210.016 24.5118C210.303 24.6659 210.553 24.8451 210.77 25.0451C210.987 25.2451 211.199 25.4243 211.408 25.5785C211.616 25.7326 211.858 25.8076 212.128 25.8076C212.37 25.8076 212.553 25.7326 212.674 25.5868C212.799 25.441 212.862 25.2492 212.862 25.0117V23.0159H210.808C209.637 23.0159 208.699 22.7742 207.999 22.2867C207.299 21.7992 206.949 21.0701 206.949 20.091C206.949 19.1118 207.287 18.3867 207.958 17.8034C208.628 17.2201 209.553 16.9326 210.728 16.9326C211.903 16.9326 212.849 17.2284 213.541 17.8242C214.233 18.4201 214.578 19.2701 214.578 20.3785H212.849C212.849 19.7118 212.658 19.2076 212.278 18.8617C211.899 18.5159 211.378 18.3451 210.724 18.3451C210.124 18.3451 209.637 18.5035 209.258 18.816C208.878 19.1285 208.691 19.5617 208.691 20.1159C208.691 20.6034 208.866 21.0076 209.22 21.316C209.574 21.6285 210.124 21.7826 210.878 21.7826H214.583V25.1201C214.583 25.7284 214.408 26.2243 214.058 26.6076C213.708 26.9909 213.17 27.1826 212.441 27.1826C211.953 27.1826 211.549 27.1035 211.241 26.941C210.928 26.7826 210.662 26.5951 210.433 26.3868C210.208 26.1784 209.978 25.9909 209.745 25.8326C209.516 25.6742 209.233 25.591 208.903 25.591H208.799V27.0826H207.12L207.128 27.0951Z" fill="white"/>
<path d="M218.799 20.6745C218.228 20.6745 217.757 20.4995 217.386 20.1454C217.015 19.7912 216.832 19.3537 216.832 18.8329C216.832 18.3121 217.015 17.8745 217.386 17.5245C217.757 17.1745 218.224 16.9995 218.799 16.9995C219.374 16.9995 219.849 17.1745 220.215 17.5245C220.582 17.8745 220.77 18.3121 220.77 18.8329C220.77 19.3537 220.586 19.7912 220.215 20.1454C219.845 20.4995 219.374 20.6745 218.799 20.6745ZM218.799 27.1537C218.228 27.1537 217.757 26.9787 217.386 26.6287C217.015 26.2787 216.832 25.8412 216.832 25.3203C216.832 24.7995 217.015 24.362 217.386 24.0079C217.757 23.6537 218.224 23.4787 218.799 23.4787C219.374 23.4787 219.849 23.6537 220.215 24.0079C220.586 24.362 220.77 24.7995 220.77 25.3203C220.77 25.8412 220.586 26.2787 220.215 26.6287C219.845 26.9787 219.374 27.1537 218.799 27.1537ZM218.799 19.5828C218.999 19.5828 219.17 19.512 219.303 19.3662C219.436 19.2203 219.507 19.0454 219.507 18.8287C219.507 18.6121 219.44 18.4371 219.303 18.2954C219.165 18.1537 218.999 18.0829 218.799 18.0829C218.599 18.0829 218.436 18.1537 218.299 18.2954C218.161 18.4371 218.095 18.6162 218.095 18.8287C218.095 19.0412 218.161 19.2203 218.299 19.3662C218.436 19.512 218.603 19.5828 218.799 19.5828ZM218.799 26.062C218.999 26.062 219.17 25.9912 219.303 25.8495C219.44 25.7078 219.507 25.5287 219.507 25.3162C219.507 25.1037 219.44 24.9246 219.303 24.7787C219.165 24.6329 218.999 24.5621 218.799 24.5621C218.599 24.5621 218.432 24.6329 218.295 24.7787C218.157 24.9246 218.095 25.0995 218.095 25.3162C218.095 25.5328 218.161 25.7078 218.295 25.8495C218.428 25.9912 218.595 26.062 218.799 26.062Z" fill="white"/>
</svg>
