<svg width="225" height="59" viewBox="0 0 225 59" fill="none" xmlns="http://www.w3.org/2000/svg">
<path d="M195.323 0.83252H29.1604C13.1419 0.83252 0.15625 13.8181 0.15625 29.8366C0.15625 45.8552 13.1419 58.8408 29.1604 58.8408H195.323C211.341 58.8408 224.327 45.8552 224.327 29.8366C224.327 13.8181 211.341 0.83252 195.323 0.83252Z" fill="#A0D92A"/>
<path d="M35.2021 16.1037C34.7437 16.1037 34.3604 16.0078 34.0562 15.812C33.7521 15.6162 33.5146 15.362 33.3438 15.0495L34.3229 14.3328C34.4729 14.7078 34.7271 14.8912 35.0896 14.8912C35.2937 14.8912 35.4521 14.837 35.5729 14.7245C35.6896 14.612 35.7479 14.4537 35.7479 14.2495V12.3745H37.1812V14.387C37.1812 14.9329 37.0021 15.3536 36.6437 15.6536C36.2854 15.9536 35.8062 16.1037 35.2021 16.1037ZM35.8979 25.9245C35.2688 25.9245 34.8104 25.7661 34.5229 25.4495C34.2354 25.1328 34.0895 24.7161 34.0895 24.1995V18.9745C34.0895 18.2954 34.2604 17.7953 34.6062 17.4745C34.9479 17.1537 35.4187 16.9954 36.0145 16.9954C36.1854 16.9954 36.3395 17.0036 36.4812 17.0161C36.6229 17.0286 36.7604 17.0495 36.8812 17.0745V18.4329C36.7896 18.4162 36.7021 18.3995 36.6229 18.3912C36.5437 18.3787 36.4562 18.3745 36.3562 18.3745C35.8521 18.3745 35.6021 18.6245 35.6021 19.1245V24.0287C35.6021 24.262 35.6604 24.4286 35.7729 24.5286C35.8854 24.6286 36.0562 24.6745 36.2812 24.6745C36.4396 24.6745 36.5937 24.6536 36.7479 24.6078V25.787C36.6479 25.8287 36.5062 25.862 36.327 25.887C36.1437 25.912 36.0021 25.9245 35.8979 25.9245Z" fill="#005339"/>
<path d="M42.3377 25.9325C41.3211 25.9325 40.5169 25.6741 39.9294 25.1574C39.3419 24.6407 39.0502 23.9616 39.0502 23.1158V20.2824L38.2461 19.8699V18.9741C38.2461 18.3325 38.3961 17.8491 38.6919 17.5282C38.9877 17.2074 39.4752 17.0449 40.1461 17.0449H45.6669V18.4241H40.1711C39.7128 18.4241 39.4836 18.6449 39.4836 19.0907V19.3491L40.1169 19.6282C40.2753 19.6991 40.3877 19.7741 40.4586 19.8533C40.5294 19.9324 40.5627 20.0533 40.5627 20.22V23.0532C40.5627 23.5449 40.7169 23.9408 41.0294 24.2491C41.3419 24.5574 41.7794 24.7115 42.3377 24.7115C42.8961 24.7115 43.3294 24.5574 43.6419 24.2491C43.9544 23.9408 44.1127 23.5449 44.1127 23.0532V21.1616C44.1127 20.8116 43.8836 20.6366 43.4294 20.6366C43.2711 20.6366 43.1169 20.6574 42.9627 20.7033V19.5658C43.0669 19.5241 43.2086 19.4908 43.3877 19.4658C43.5669 19.4408 43.7086 19.4282 43.8169 19.4282C44.4461 19.4282 44.9044 19.5741 45.1919 19.8699C45.4794 20.1658 45.6252 20.5491 45.6252 21.0283V23.1116C45.6252 23.9574 45.3294 24.6366 44.7419 25.1532C44.1544 25.6699 43.3502 25.9283 42.3377 25.9283V25.9325Z" fill="#005339"/>
<path d="M48.2695 18.4241V17.0449H54.9487V18.4241H48.2695ZM48.3195 22.3116C48.3195 21.7283 48.4529 21.2199 48.7237 20.7824C48.9945 20.3449 49.3737 20.0074 49.8695 19.7658C50.3612 19.5241 50.9445 19.4032 51.6112 19.4032C52.2779 19.4032 52.857 19.5241 53.3528 19.7658C53.8487 20.0074 54.2278 20.3449 54.4987 20.7824C54.7695 21.2199 54.9029 21.7283 54.9029 22.3116V25.8283H53.3904V22.3824C53.3904 21.8783 53.2279 21.47 52.8987 21.1533C52.5695 20.8366 52.1445 20.6824 51.6154 20.6824C51.0862 20.6824 50.6612 20.8408 50.332 21.1533C50.0028 21.4658 49.8404 21.8783 49.8404 22.3824V25.8283H48.3279V22.3116H48.3195Z" fill="#005339"/>
<path d="M58.1883 25.9202C57.7967 25.9202 57.4174 25.8743 57.0508 25.7868V24.6201C57.1674 24.6493 57.2883 24.6702 57.405 24.6868C57.5258 24.7035 57.6674 24.7118 57.8341 24.7118C58.2091 24.7118 58.4008 24.491 58.4008 24.0493V20.3535L57.2008 19.9743V18.8826C57.2008 18.2534 57.3508 17.791 57.6508 17.4952C57.9508 17.1993 58.43 17.0493 59.0966 17.0493H60.1425V18.4285H59.1966C58.6758 18.4285 58.4133 18.6576 58.4133 19.116V19.291L59.4716 19.591C59.7675 19.6785 59.9175 19.8743 59.9175 20.1827V24.2368C59.9175 24.7701 59.7716 25.1868 59.48 25.4826C59.1883 25.7785 58.7591 25.9243 58.1966 25.9243L58.1883 25.9202Z" fill="#005339"/>
<path d="M58.8206 15.6409C58.2747 15.6409 57.8373 15.4741 57.5039 15.1408C57.1706 14.8075 57.0039 14.395 57.0039 13.8991C57.0039 13.4033 57.1706 12.9866 57.5039 12.6533C57.8373 12.32 58.2747 12.1533 58.8206 12.1533C59.3664 12.1533 59.8039 12.32 60.1372 12.6533C60.4706 12.9866 60.6373 13.4033 60.6373 13.8991C60.6373 14.395 60.4706 14.8075 60.1372 15.1408C59.8039 15.4741 59.3664 15.6409 58.8206 15.6409ZM58.8206 14.6408C59.0247 14.6408 59.1914 14.57 59.3248 14.4283C59.4581 14.2866 59.5248 14.1116 59.5248 13.8991C59.5248 13.6866 59.4581 13.5075 59.3248 13.3658C59.1914 13.2241 59.0247 13.1533 58.8206 13.1533C58.6164 13.1533 58.4539 13.2241 58.3164 13.3658C58.1831 13.5075 58.1123 13.6866 58.1123 13.8991C58.1123 14.1116 58.1789 14.2866 58.3164 14.4283C58.4497 14.57 58.6164 14.6408 58.8206 14.6408Z" fill="#005339"/>
<path d="M63.706 16.1037C63.2477 16.1037 62.8644 16.0078 62.5602 15.812C62.256 15.6162 62.0185 15.362 61.8477 15.0495L62.8269 14.3328C62.9769 14.7078 63.231 14.8912 63.5935 14.8912C63.7977 14.8912 63.956 14.837 64.0769 14.7245C64.1935 14.612 64.2518 14.4537 64.2518 14.2495V12.3745H65.6852V14.387C65.6852 14.9329 65.506 15.3536 65.1477 15.6536C64.7893 15.9536 64.3102 16.1037 63.706 16.1037ZM64.4018 25.9245C63.7727 25.9245 63.3144 25.7661 63.0269 25.4495C62.7394 25.1328 62.5935 24.7161 62.5935 24.1995V18.9745C62.5935 18.2954 62.7643 17.7953 63.1102 17.4745C63.4518 17.1537 63.9227 16.9954 64.5185 16.9954C64.6893 16.9954 64.8435 17.0036 64.9852 17.0161C65.1268 17.0286 65.2643 17.0495 65.3852 17.0745V18.4329C65.2935 18.4162 65.206 18.3995 65.1268 18.3912C65.0477 18.3787 64.9602 18.3745 64.8602 18.3745C64.356 18.3745 64.106 18.6245 64.106 19.1245V24.0287C64.106 24.262 64.1644 24.4286 64.2769 24.5286C64.3894 24.6286 64.5602 24.6745 64.7852 24.6745C64.9435 24.6745 65.0977 24.6536 65.2518 24.6078V25.787C65.1518 25.8287 65.0102 25.862 64.831 25.887C64.6477 25.912 64.506 25.9245 64.4018 25.9245Z" fill="#005339"/>
<path d="M69.0466 25.8784C68.4174 25.8784 67.9591 25.7326 67.6716 25.4368C67.3841 25.141 67.2383 24.7576 67.2383 24.2785V19.7576C67.2383 19.1951 67.3716 18.7034 67.6341 18.2784C67.8966 17.8534 68.2716 17.5285 68.7508 17.291C69.2299 17.0576 69.7966 16.9409 70.4424 16.9409C71.0883 16.9409 71.6675 17.0576 72.1508 17.291C72.6341 17.5243 73.0049 17.8534 73.2674 18.2784C73.5299 18.7034 73.6632 19.1951 73.6632 19.7576V23.0368C73.6632 23.516 73.8175 23.9076 74.1216 24.2034C74.4258 24.4992 74.83 24.6534 75.3258 24.6534C75.8216 24.6534 76.2258 24.5034 76.5341 24.2034C76.8424 23.9034 76.9966 23.516 76.9966 23.0368V20.2868L76.1466 19.9076V18.9034C76.1466 18.2909 76.2924 17.8285 76.5841 17.516C76.8758 17.2035 77.3383 17.0451 77.9716 17.0451H78.8716V18.4243H78.1091C77.5924 18.4243 77.3341 18.6534 77.3341 19.1117V19.3409L78.0633 19.6326C78.2258 19.6992 78.3424 19.7701 78.4091 19.8451C78.4758 19.9201 78.5091 20.041 78.5091 20.2076V23.1201C78.5091 23.6826 78.3799 24.1743 78.1174 24.5993C77.8591 25.0201 77.4883 25.3493 77.0091 25.5868C76.5299 25.8243 75.9675 25.941 75.3216 25.941C74.6758 25.941 74.1174 25.8243 73.6424 25.5868C73.1674 25.3493 72.8008 25.0243 72.5383 24.5993C72.2758 24.1743 72.1466 23.6826 72.1466 23.1201V19.8409C72.1466 19.3617 71.9883 18.97 71.6758 18.6742C71.3633 18.3784 70.9508 18.2243 70.4383 18.2243C69.9258 18.2243 69.5258 18.3742 69.2133 18.6742C68.9008 18.9742 68.7466 19.3617 68.7466 19.8409V24.1534C68.7466 24.5034 68.9758 24.6784 69.43 24.6784C69.5883 24.6784 69.7424 24.6575 69.8966 24.6117V25.7493C69.7966 25.791 69.6549 25.8243 69.4758 25.8493C69.2924 25.8743 69.1508 25.8867 69.0424 25.8867L69.0466 25.8784Z" fill="#005339"/>
<path d="M81.1562 18.4241V17.0449H87.8354V18.4241H81.1562ZM81.2062 22.3116C81.2062 21.7283 81.3396 21.2199 81.6104 20.7824C81.8812 20.3449 82.2604 20.0074 82.7562 19.7658C83.2479 19.5241 83.8312 19.4032 84.4979 19.4032C85.1645 19.4032 85.7437 19.5241 86.2396 19.7658C86.7354 20.0074 87.1146 20.3449 87.3854 20.7824C87.6562 21.2199 87.7896 21.7283 87.7896 22.3116V25.8283H86.277V22.3824C86.277 21.8783 86.1146 21.47 85.7854 21.1533C85.4562 20.8366 85.0312 20.6824 84.502 20.6824C83.9729 20.6824 83.5479 20.8408 83.2187 21.1533C82.8896 21.4658 82.727 21.8783 82.727 22.3824V25.8283H81.2146V22.3116H81.2062Z" fill="#005339"/>
<path d="M90.4258 18.4241V17.0449H98.9049C99.7424 17.0449 100.392 17.2532 100.863 17.6616C101.334 18.0741 101.567 18.7033 101.567 19.5491V25.8241H100.055V19.6449C100.055 18.8283 99.6299 18.4158 98.7757 18.4158H90.4258V18.4241ZM90.4758 22.3116C90.4758 21.7283 90.6091 21.2199 90.8799 20.7824C91.1508 20.3449 91.5299 20.0074 92.0258 19.7658C92.5174 19.5241 93.1007 19.4032 93.7674 19.4032C94.4341 19.4032 95.0133 19.5241 95.5091 19.7658C96.0049 20.0074 96.3841 20.3449 96.6549 20.7824C96.9258 21.2199 97.0591 21.7283 97.0591 22.3116V25.8283H95.5466V22.3824C95.5466 21.8783 95.3841 21.47 95.0549 21.1533C94.7258 20.8366 94.3007 20.6824 93.7716 20.6824C93.2424 20.6824 92.8174 20.8408 92.4883 21.1533C92.1591 21.4658 91.9966 21.8783 91.9966 22.3824V25.8283H90.4841V22.3116H90.4758Z" fill="#005339"/>
<path d="M104.86 25.9202C104.469 25.9202 104.089 25.8743 103.723 25.7868V24.6201C103.839 24.6493 103.96 24.6702 104.077 24.6868C104.198 24.7035 104.339 24.7118 104.506 24.7118C104.881 24.7118 105.073 24.491 105.073 24.0493V20.3535L103.873 19.9743V18.8826C103.873 18.2534 104.023 17.791 104.323 17.4952C104.623 17.1993 105.102 17.0493 105.769 17.0493H106.814V18.4285H105.868C105.348 18.4285 105.085 18.6576 105.085 19.116V19.291L106.144 19.591C106.439 19.6785 106.589 19.8743 106.589 20.1827V24.2368C106.589 24.7701 106.444 25.1868 106.152 25.4826C105.86 25.7785 105.431 25.9243 104.868 25.9243L104.86 25.9202Z" fill="#005339"/>
<path d="M109.262 18.4241V17.0449H117.741C118.578 17.0449 119.228 17.2532 119.699 17.6616C120.17 18.0741 120.403 18.7033 120.403 19.5491V25.8241H118.891V19.6449C118.891 18.8283 118.466 18.4158 117.612 18.4158H109.262V18.4241ZM109.312 22.3116C109.312 21.7283 109.445 21.2199 109.716 20.7824C109.987 20.3449 110.366 20.0074 110.862 19.7658C111.353 19.5241 111.937 19.4032 112.603 19.4032C113.27 19.4032 113.849 19.5241 114.345 19.7658C114.841 20.0074 115.22 20.3449 115.491 20.7824C115.762 21.2199 115.895 21.7283 115.895 22.3116V25.8283H114.383V22.3824C114.383 21.8783 114.22 21.47 113.891 21.1533C113.562 20.8366 113.137 20.6824 112.608 20.6824C112.078 20.6824 111.653 20.8408 111.324 21.1533C110.995 21.4658 110.833 21.8783 110.833 22.3824V23.5949H110.883C111.003 23.2616 111.183 23.0241 111.42 22.8866C111.658 22.7491 111.928 22.6783 112.233 22.6783H112.912V23.8782H112.062C111.637 23.8782 111.328 23.9991 111.128 24.2408C110.933 24.4824 110.833 24.7824 110.833 25.1407V25.8241H109.32V22.3075L109.312 22.3116Z" fill="#005339"/>
<path d="M117.68 15.6409C117.134 15.6409 116.697 15.4741 116.363 15.1408C116.03 14.8075 115.863 14.395 115.863 13.8991C115.863 13.4033 116.03 12.9866 116.363 12.6533C116.697 12.32 117.134 12.1533 117.68 12.1533C118.226 12.1533 118.663 12.32 118.997 12.6533C119.33 12.9866 119.497 13.4033 119.497 13.8991C119.497 14.395 119.33 14.8075 118.997 15.1408C118.663 15.4741 118.226 15.6409 117.68 15.6409ZM117.68 14.6408C117.884 14.6408 118.051 14.57 118.184 14.4283C118.317 14.2866 118.384 14.1116 118.384 13.8991C118.384 13.6866 118.317 13.5075 118.184 13.3658C118.051 13.2241 117.884 13.1533 117.68 13.1533C117.476 13.1533 117.313 13.2241 117.176 13.3658C117.042 13.5075 116.972 13.6866 116.972 13.8991C116.972 14.1116 117.038 14.2866 117.176 14.4283C117.309 14.57 117.476 14.6408 117.68 14.6408Z" fill="#005339"/>
<path d="M126.038 29.9077C125.146 29.9077 124.434 29.6827 123.896 29.2327C123.359 28.7827 123.092 28.1868 123.092 27.4452V20.2827L122.242 19.9036V18.8993C122.242 18.2868 122.388 17.8244 122.68 17.5119C122.971 17.1994 123.434 17.041 124.067 17.041H124.967V18.4202H124.205C123.692 18.4202 123.434 18.6493 123.434 19.1077V19.3369L124.159 19.6285C124.313 19.691 124.425 19.7618 124.496 19.8368C124.567 19.9118 124.6 20.0369 124.6 20.2036V27.3827C124.6 27.766 124.734 28.0744 124.996 28.3077C125.259 28.541 125.605 28.6577 126.034 28.6577C126.463 28.6577 126.809 28.541 127.071 28.3077C127.334 28.0744 127.467 27.766 127.467 27.3827V26.5577H128.984V27.4493C128.984 28.191 128.717 28.7869 128.18 29.2369C127.642 29.6869 126.93 29.9119 126.038 29.9119V29.9077Z" fill="#005339"/>
<path d="M130.514 25.9329C129.656 25.9329 128.981 25.7287 128.481 25.3204C127.981 24.9121 127.731 24.3579 127.731 23.6621V22.9204H129.219V23.5787C129.219 23.9287 129.339 24.212 129.577 24.4245C129.814 24.637 130.135 24.7412 130.535 24.7412C130.935 24.7412 131.256 24.637 131.493 24.4245C131.731 24.212 131.852 23.9245 131.852 23.5661V22.7829C131.852 22.6079 131.819 22.4787 131.756 22.4037C131.694 22.3287 131.564 22.287 131.369 22.287H130.581C129.519 22.287 128.681 22.0745 128.073 21.6454C127.464 21.2204 127.16 20.5786 127.16 19.7203C127.16 18.862 127.452 18.2079 128.035 17.6995C128.619 17.1912 129.431 16.937 130.473 16.937C131.514 16.937 132.327 17.1996 132.931 17.7246C133.535 18.2496 133.839 18.9912 133.839 19.9495H132.323C132.323 19.3745 132.16 18.9329 131.831 18.6245C131.502 18.3204 131.048 18.1662 130.464 18.1662C129.935 18.1662 129.506 18.3036 129.177 18.5745C128.848 18.8453 128.681 19.2286 128.681 19.7203C128.681 20.1536 128.839 20.5078 129.148 20.7828C129.46 21.0578 129.964 21.1995 130.656 21.1995H133.785V22.162L132.839 22.2037V22.2537C133.173 22.3953 133.335 22.6454 133.335 23.0079V23.7078C133.335 24.3912 133.077 24.9329 132.564 25.3287C132.048 25.7246 131.364 25.9245 130.514 25.9245V25.9329Z" fill="#005339"/>
<path d="M136.946 25.9202C136.554 25.9202 136.175 25.8743 135.809 25.7868V24.6201C135.925 24.6493 136.046 24.6702 136.163 24.6868C136.284 24.7035 136.425 24.7118 136.592 24.7118C136.967 24.7118 137.159 24.491 137.159 24.0493V20.3535L135.959 19.9743V18.8826C135.959 18.2534 136.109 17.791 136.409 17.4952C136.709 17.1993 137.188 17.0493 137.854 17.0493H138.9V18.4285H137.954C137.434 18.4285 137.171 18.6576 137.171 19.116V19.291L138.229 19.591C138.525 19.6785 138.675 19.8743 138.675 20.1827V24.2368C138.675 24.7701 138.529 25.1868 138.238 25.4826C137.946 25.7785 137.517 25.9243 136.954 25.9243L136.946 25.9202Z" fill="#005339"/>
<path d="M144.761 25.9327C144.103 25.9327 143.528 25.816 143.036 25.5785C142.545 25.341 142.166 25.0077 141.895 24.5785C141.624 24.1493 141.486 23.6451 141.486 23.0701V20.291L140.641 19.9119V18.9076C140.641 18.2951 140.786 17.8327 141.074 17.5202C141.361 17.2077 141.828 17.0493 142.461 17.0493H143.361V18.4285H142.599C142.082 18.4285 141.82 18.6576 141.82 19.116V19.3452L142.549 19.6368C142.707 19.7035 142.82 19.7743 142.891 19.8493C142.961 19.9243 142.995 20.0452 142.995 20.2119V23.0035C142.995 23.4993 143.153 23.8951 143.478 24.2035C143.799 24.5076 144.224 24.6618 144.753 24.6618C145.282 24.6618 145.699 24.5118 146.02 24.2076C146.341 23.9035 146.503 23.5035 146.503 23.0077V20.2993L145.657 19.9201V18.916C145.657 18.3035 145.803 17.8409 146.091 17.5284C146.382 17.2159 146.845 17.0577 147.478 17.0577H148.378V18.4368H147.616C147.099 18.4368 146.841 18.666 146.841 19.1243V19.3535L147.57 19.6451C147.728 19.7118 147.845 19.7826 147.911 19.8576C147.982 19.9326 148.016 20.0535 148.016 20.2202V23.0826C148.016 23.6576 147.878 24.1619 147.607 24.591C147.336 25.0202 146.957 25.3535 146.47 25.591C145.982 25.8285 145.407 25.9452 144.749 25.9452L144.761 25.9327Z" fill="#005339"/>
<path d="M152.449 25.9199C151.82 25.9199 151.362 25.774 151.07 25.4782C150.778 25.1823 150.637 24.799 150.637 24.3198V22.2074C150.637 21.2532 151.016 20.5365 151.774 20.0573L151.153 19.6073V18.9198C151.153 18.2407 151.37 17.749 151.803 17.4448C152.237 17.1448 152.866 16.9907 153.691 16.9907C154.078 16.9907 154.47 17.0073 154.87 17.0407C155.27 17.074 155.678 17.1282 156.091 17.2032L155.903 18.5199C155.512 18.4365 155.137 18.3782 154.787 18.3449C154.437 18.3116 154.083 18.2948 153.737 18.2948C153.278 18.2948 152.937 18.3531 152.716 18.4698C152.495 18.5865 152.387 18.7948 152.387 19.0906V19.3073L152.87 19.6407C153.174 19.574 153.499 19.5407 153.849 19.5407C154.87 19.5407 155.666 19.7865 156.228 20.2823C156.791 20.7782 157.074 21.4199 157.074 22.2074V23.1199C157.074 23.5699 157.22 23.9365 157.516 24.224C157.808 24.5115 158.212 24.6532 158.724 24.6532C159.237 24.6532 159.645 24.5115 159.949 24.224C160.249 23.9407 160.403 23.5699 160.403 23.1199V20.2865L159.553 19.9074V18.9032C159.553 18.2907 159.699 17.8282 159.991 17.5157C160.283 17.2032 160.745 17.0448 161.374 17.0448H162.283V18.424H161.516C161.003 18.424 160.745 18.6532 160.745 19.1115V19.3407L161.47 19.6323C161.633 19.699 161.749 19.7698 161.816 19.8448C161.883 19.9198 161.916 20.0407 161.916 20.2074V23.2115C161.916 24.0282 161.633 24.6824 161.066 25.1865C160.499 25.6865 159.72 25.9365 158.724 25.9365C157.728 25.9365 156.958 25.6865 156.403 25.1865C155.845 24.6865 155.566 24.0282 155.566 23.2115V22.3407C155.566 21.8865 155.412 21.5115 155.103 21.224C154.795 20.9365 154.378 20.7907 153.853 20.7907C153.328 20.7907 152.916 20.9365 152.612 21.224C152.312 21.5115 152.158 21.8823 152.158 22.3407V24.1948C152.158 24.5448 152.383 24.7198 152.837 24.7198C152.995 24.7198 153.149 24.699 153.303 24.6532V25.7907C153.203 25.8323 153.062 25.8657 152.883 25.8907C152.703 25.9157 152.558 25.9282 152.453 25.9282L152.449 25.9199Z" fill="#005339"/>
<path d="M158.035 15.4863V12.4155H159.406V15.4863H158.035Z" fill="#005339"/>
<path d="M165.204 25.9202C164.812 25.9202 164.429 25.8743 164.066 25.7868V24.6201C164.183 24.6493 164.304 24.6702 164.421 24.6868C164.541 24.7035 164.679 24.7118 164.841 24.7118C165.216 24.7118 165.404 24.491 165.404 24.0493V20.3535L164.204 19.9743V18.8826C164.204 18.2534 164.354 17.791 164.654 17.4952C164.954 17.1993 165.437 17.0493 166.1 17.0493H167.15V18.4285H166.183C165.675 18.4285 165.421 18.6576 165.421 19.116V19.291L166.471 19.591C166.771 19.6785 166.921 19.8743 166.921 20.1827V21.4452H170.304V20.3535L169.104 19.9743V18.8826C169.104 18.2534 169.254 17.791 169.554 17.4952C169.854 17.1993 170.337 17.0493 171 17.0493H172.046V18.4285H171.079C170.571 18.4285 170.316 18.6576 170.316 19.116V19.291L171.375 19.591C171.671 19.6785 171.821 19.8743 171.821 20.1827V24.2368C171.821 24.7701 171.675 25.1826 171.387 25.4785C171.1 25.7743 170.671 25.9243 170.1 25.9243C169.708 25.9243 169.333 25.8785 168.966 25.791V24.6243C169.083 24.6535 169.2 24.6744 169.321 24.691C169.437 24.7077 169.579 24.7159 169.746 24.7159C170.121 24.7159 170.308 24.4952 170.308 24.0535V22.4827H166.925V24.2368C166.925 24.7701 166.779 25.1868 166.487 25.4826C166.196 25.7785 165.766 25.9243 165.204 25.9243V25.9202Z" fill="#005339"/>
<path d="M169.468 29.8074V29.1407C169.08 29.1698 168.755 29.2407 168.489 29.349C168.222 29.4573 167.959 29.5573 167.705 29.6532C167.447 29.749 167.143 29.799 166.784 29.799C166.23 29.799 165.789 29.6532 165.468 29.3615C165.143 29.0698 164.984 28.674 164.984 28.174C164.984 27.674 165.147 27.2699 165.472 26.9865C165.797 26.7032 166.222 26.5615 166.743 26.5615H171.355V27.4782H170.78V28.1032C170.918 28.1448 171.014 28.224 171.068 28.3407C171.122 28.4574 171.147 28.5781 171.147 28.7073C171.147 29.099 170.964 29.4699 170.601 29.8115H169.464L169.468 29.8074ZM167.126 28.8031C167.347 28.8031 167.564 28.7615 167.78 28.674C167.993 28.5865 168.234 28.499 168.501 28.4032C168.768 28.3073 169.093 28.2448 169.468 28.2198V27.4782H167.034C166.843 27.4782 166.689 27.5406 166.572 27.6656C166.455 27.7906 166.397 27.9531 166.397 28.1531C166.397 28.3531 166.464 28.5073 166.593 28.6282C166.722 28.749 166.901 28.8073 167.13 28.8073L167.126 28.8031Z" fill="#005339"/>
<path d="M174.457 18.4241V17.0449H181.136V18.4241H174.457ZM174.507 22.3116C174.507 21.7283 174.64 21.2199 174.911 20.7824C175.182 20.3449 175.561 20.0074 176.057 19.7658C176.549 19.5241 177.132 19.4032 177.799 19.4032C178.465 19.4032 179.045 19.5241 179.54 19.7658C180.036 20.0074 180.415 20.3449 180.686 20.7824C180.957 21.2199 181.09 21.7283 181.09 22.3116V25.8283H179.578V22.3824C179.578 21.8783 179.415 21.47 179.086 21.1533C178.757 20.8366 178.332 20.6824 177.803 20.6824C177.274 20.6824 176.849 20.8408 176.52 21.1533C176.19 21.4658 176.028 21.8783 176.028 22.3824V25.8283H174.515V22.3116H174.507Z" fill="#005339"/>
<path d="M57.0586 43.9326C56.4294 43.9326 55.9711 43.7867 55.6794 43.4909C55.3878 43.195 55.2461 42.8117 55.2461 42.3325V40.2201C55.2461 39.2659 55.6253 38.5492 56.3836 38.07L55.7628 37.6201V36.9325C55.7628 36.2534 55.9794 35.7617 56.4128 35.4575C56.8461 35.1575 57.4752 35.0034 58.3002 35.0034C58.6877 35.0034 59.0794 35.02 59.4794 35.0534C59.8794 35.0867 60.2877 35.1409 60.7002 35.2159L60.5128 36.5326C60.1211 36.4492 59.7461 36.3909 59.3961 36.3576C59.0461 36.3243 58.692 36.3075 58.3461 36.3075C57.8878 36.3075 57.5461 36.3658 57.3253 36.4825C57.1044 36.5992 56.9961 36.8076 56.9961 37.1034V37.32L57.4794 37.6534C57.7836 37.5867 58.1086 37.5534 58.4586 37.5534C59.4794 37.5534 60.2753 37.7992 60.8378 38.295C61.4003 38.7909 61.6836 39.4326 61.6836 40.2201V41.1326C61.6836 41.5826 61.8294 41.9492 62.1253 42.2367C62.4169 42.5242 62.8211 42.6659 63.3336 42.6659C63.8461 42.6659 64.2544 42.5242 64.5586 42.2367C64.8586 41.9534 65.0128 41.5826 65.0128 41.1326V38.2992L64.1628 37.9201V36.9159C64.1628 36.3034 64.3086 35.8409 64.6002 35.5284C64.8919 35.2159 65.3544 35.0575 65.9836 35.0575H66.8919V36.4367H66.1253C65.6128 36.4367 65.3544 36.6659 65.3544 37.1242V37.3534L66.0794 37.645C66.2419 37.7117 66.3586 37.7825 66.4252 37.8575C66.4919 37.9325 66.5253 38.0534 66.5253 38.2201V41.2242C66.5253 42.0409 66.2419 42.6951 65.6753 43.1992C65.1086 43.6992 64.3294 43.9492 63.3336 43.9492C62.3378 43.9492 61.5669 43.6992 61.0127 43.1992C60.4544 42.6992 60.1752 42.0409 60.1752 41.2242V40.3534C60.1752 39.8992 60.0211 39.5242 59.7127 39.2367C59.4044 38.9492 58.9877 38.8034 58.4627 38.8034C57.9377 38.8034 57.5253 38.9492 57.2211 39.2367C56.9211 39.5242 56.7669 39.895 56.7669 40.3534V42.2076C56.7669 42.5576 56.9919 42.7325 57.4461 42.7325C57.6044 42.7325 57.7586 42.7117 57.9128 42.6659V43.8034C57.8128 43.845 57.6711 43.8784 57.4919 43.9034C57.3128 43.9284 57.1669 43.9409 57.0628 43.9409L57.0586 43.9326Z" fill="#005339"/>
<path d="M72.1591 47.9199C71.2674 47.9199 70.5549 47.6949 70.0174 47.2449C69.4799 46.7949 69.2133 46.199 69.2133 45.4574V38.2949L68.3633 37.9158V36.9115C68.3633 36.299 68.5091 35.8366 68.8008 35.5241C69.0925 35.2116 69.555 35.0532 70.1883 35.0532H71.0883V36.4324H70.3258C69.8133 36.4324 69.5549 36.6615 69.5549 37.1199V37.3491L70.2799 37.6407C70.4341 37.7032 70.5466 37.774 70.6175 37.849C70.6883 37.924 70.7216 38.0491 70.7216 38.2158V45.3949C70.7216 45.7783 70.8549 46.0866 71.1174 46.3199C71.3799 46.5532 71.7258 46.6699 72.1549 46.6699C72.5841 46.6699 72.93 46.5532 73.1925 46.3199C73.455 46.0866 73.5883 45.7783 73.5883 45.3949V44.5699H75.105V45.4615C75.105 46.2032 74.8383 46.7991 74.3008 47.2491C73.7633 47.6991 73.0508 47.9241 72.1591 47.9241V47.9199Z" fill="#005339"/>
<path d="M76.9529 43.9454C76.2945 43.9454 75.7195 43.8287 75.2279 43.5912C74.7362 43.3537 74.357 43.0204 74.0862 42.5912C73.8154 42.162 73.6779 41.6578 73.6779 41.0828V38.3037L72.832 37.9246V36.9203C72.832 36.3078 72.9779 35.8454 73.2654 35.5329C73.5529 35.2204 74.0196 35.062 74.6529 35.062H75.5529V36.4412H74.7904C74.2737 36.4412 74.0112 36.6703 74.0112 37.1287V37.3578L74.7404 37.6495C74.8987 37.7162 75.0112 37.787 75.082 37.862C75.1529 37.937 75.1862 38.0579 75.1862 38.2245V39.212H78.6904V38.3079L77.8445 37.9287V36.9245C77.8445 36.312 77.9904 35.8496 78.2779 35.5371C78.5696 35.2246 79.032 35.0662 79.6654 35.0662H82.0529C82.8862 35.0662 83.5404 35.2745 84.0071 35.6828C84.4737 36.0953 84.707 36.7245 84.707 37.5704V43.8454H83.1946V37.6662C83.1946 36.8495 82.7696 36.437 81.9196 36.437H79.8029C79.2862 36.437 79.0279 36.6662 79.0279 37.1245V37.3537L79.7571 37.6453C79.9154 37.712 80.0321 37.7828 80.0987 37.8578C80.1696 37.9328 80.2029 38.0537 80.2029 38.2204V41.0828C80.2029 41.6578 80.0654 42.162 79.7946 42.5912C79.5237 43.0204 79.1446 43.3537 78.6571 43.5912C78.1696 43.8287 77.5946 43.9454 76.9362 43.9454H76.9529ZM75.1987 41.0079C75.1987 41.5037 75.3571 41.8996 75.6821 42.2079C76.0029 42.5121 76.4279 42.6662 76.957 42.6662C77.4862 42.6662 77.9029 42.5161 78.2237 42.212C78.5446 41.9078 78.7071 41.5079 78.7071 41.012V40.2453H75.2029V41.012L75.1987 41.0079Z" fill="#005339"/>
<path d="M90.7771 43.9454C90.1188 43.9454 89.5438 43.8287 89.0521 43.5912C88.5604 43.3537 88.1813 43.0204 87.9104 42.5912C87.6396 42.162 87.5021 41.6578 87.5021 41.0828V38.3037L86.6562 37.9246V36.9203C86.6562 36.3078 86.8021 35.8454 87.0896 35.5329C87.3771 35.2204 87.8437 35.062 88.4771 35.062H89.3771V36.4412H88.6146C88.0979 36.4412 87.8354 36.6703 87.8354 37.1287V37.3578L88.5646 37.6495C88.7229 37.7162 88.8354 37.787 88.9063 37.862C88.9771 37.937 89.0104 38.0579 89.0104 38.2245V41.0162C89.0104 41.512 89.1688 41.9078 89.4938 42.2161C89.8146 42.5203 90.2396 42.6745 90.7687 42.6745C91.2979 42.6745 91.7146 42.5245 92.0354 42.2203C92.3563 41.9161 92.5187 41.5162 92.5187 41.0204V38.312L91.6729 37.9329V36.9287C91.6729 36.3162 91.8187 35.8537 92.1062 35.5412C92.3979 35.2287 92.8604 35.0704 93.4938 35.0704H94.3937V36.4495H93.6312C93.1146 36.4495 92.8563 36.6787 92.8563 37.137V37.3662L93.5854 37.6578C93.7438 37.7245 93.8604 37.7953 93.9271 37.8703C93.9979 37.9453 94.0312 38.0662 94.0312 38.2329V41.0953C94.0312 41.6703 93.8937 42.1746 93.6229 42.6037C93.3521 43.0329 92.9729 43.3662 92.4854 43.6037C91.9979 43.8412 91.4229 43.9579 90.7646 43.9579L90.7771 43.9454Z" fill="#005339"/>
<path d="M90.1016 33.499V30.4282H91.4724V33.499H90.1016Z" fill="#005339"/>
<path d="M96.6914 36.4324V35.0532H103.371V36.4324H96.6914ZM96.7414 40.3199C96.7414 39.7366 96.8748 39.2282 97.1456 38.7907C97.4164 38.3532 97.7956 38.0157 98.2914 37.7741C98.7831 37.5324 99.3664 37.4116 100.033 37.4116C100.7 37.4116 101.279 37.5324 101.775 37.7741C102.271 38.0157 102.65 38.3532 102.921 38.7907C103.191 39.2282 103.325 39.7366 103.325 40.3199V43.8366H101.812V40.3907C101.812 39.8866 101.65 39.4783 101.321 39.1616C100.991 38.8449 100.566 38.6907 100.037 38.6907C99.5081 38.6907 99.0831 38.8491 98.7539 39.1616C98.4248 39.4741 98.2622 39.8866 98.2622 40.3907V43.8366H96.7497V40.3199H96.7414Z" fill="#005339"/>
<path d="M109.371 43.9454C108.713 43.9454 108.138 43.8287 107.646 43.5912C107.154 43.3537 106.775 43.0204 106.504 42.5912C106.233 42.162 106.096 41.6578 106.096 41.0828V38.3037L105.25 37.9246V36.9203C105.25 36.3078 105.396 35.8454 105.683 35.5329C105.971 35.2204 106.437 35.062 107.071 35.062H107.971V36.4412H107.208C106.692 36.4412 106.429 36.6703 106.429 37.1287V37.3578L107.158 37.6495C107.317 37.7162 107.429 37.787 107.5 37.862C107.571 37.937 107.604 38.0579 107.604 38.2245V39.212H111.108V38.3079L110.263 37.9287V36.9245C110.263 36.312 110.408 35.8496 110.696 35.5371C110.987 35.2246 111.45 35.0662 112.083 35.0662H112.983V36.4454H112.221C111.704 36.4454 111.446 36.6745 111.446 37.1328V37.362L112.175 37.6537C112.333 37.7203 112.45 37.7912 112.517 37.8662C112.587 37.9412 112.621 38.0621 112.621 38.2287V41.0912C112.621 41.6662 112.483 42.1704 112.212 42.5995C111.942 43.0287 111.562 43.362 111.075 43.5995C110.587 43.837 110.012 43.9537 109.354 43.9537L109.371 43.9454ZM107.617 41.0079C107.617 41.5037 107.775 41.8996 108.1 42.2079C108.421 42.5121 108.846 42.6662 109.375 42.6662C109.904 42.6662 110.321 42.5161 110.642 42.212C110.962 41.9078 111.125 41.5079 111.125 41.012V40.2453H107.621V41.012L107.617 41.0079Z" fill="#005339"/>
<path d="M110.691 47.8159V46.82C110.399 46.8575 110.153 46.92 109.949 47.0117C109.745 47.0992 109.549 47.1951 109.366 47.2909C109.182 47.3868 108.982 47.47 108.766 47.5409C108.549 47.6117 108.291 47.645 107.987 47.645C107.437 47.645 107.024 47.5117 106.745 47.2451C106.466 46.9784 106.328 46.6118 106.328 46.1493C106.328 46.0326 106.336 45.9243 106.353 45.8326C106.37 45.7368 106.395 45.645 106.424 45.5534H107.857C107.786 45.72 107.753 45.8784 107.753 46.0368C107.753 46.4201 107.957 46.6117 108.366 46.6117C108.599 46.6117 108.824 46.5576 109.032 46.4493C109.241 46.3409 109.478 46.2242 109.736 46.0951C109.995 45.9701 110.311 45.8826 110.691 45.8326V44.5659H112.12V45.8451C112.278 45.9034 112.391 45.9951 112.453 46.1159C112.516 46.2367 112.549 46.3826 112.549 46.5576C112.549 46.7576 112.507 46.9659 112.424 47.1826C112.341 47.3993 112.228 47.6118 112.086 47.8159H110.695H110.691Z" fill="#005339"/>
<path d="M116.012 43.8907C115.621 43.8907 115.246 43.8449 114.879 43.7574V42.5908C114.996 42.6199 115.112 42.6407 115.233 42.6574C115.35 42.6741 115.491 42.6824 115.658 42.6824C116.033 42.6824 116.221 42.4615 116.221 42.0199V38.3574L114.937 37.9074V36.7199C114.937 35.6116 115.483 35.0574 116.579 35.0574H116.9V34.1157H118.346V35.5283C118.346 36.0783 118.071 36.3533 117.521 36.3533H116.816C116.379 36.3533 116.158 36.57 116.158 36.9991V37.2033L117.287 37.5657C117.45 37.6157 117.566 37.6866 117.633 37.7741C117.7 37.8616 117.733 37.9865 117.733 38.1574V42.2075C117.733 42.7408 117.587 43.1575 117.3 43.4533C117.008 43.7491 116.583 43.8949 116.016 43.8949L116.012 43.8907Z" fill="#005339"/>
<path d="M113.859 33.4991V32.1157H116.847C117.38 32.1157 117.805 32.1741 118.118 32.2908C118.43 32.4075 118.697 32.5741 118.914 32.7824V33.4991H113.859Z" fill="#005339"/>
<path d="M120.554 43.8405V38.2946L119.75 37.8821V36.9863C119.75 36.3447 119.9 35.8614 120.196 35.5405C120.492 35.2197 120.979 35.0571 121.65 35.0571H127.171V36.4363H121.675C121.217 36.4363 120.987 36.6572 120.987 37.103V37.3613L121.621 37.6404C121.779 37.7113 121.892 37.7863 121.962 37.8655C122.033 37.9446 122.067 38.0655 122.067 38.2322V42.253H122.125L123.6 40.828H124.087L125.562 42.253H125.621V39.0946C125.621 38.7488 125.392 38.5779 124.937 38.5779C124.779 38.5779 124.625 38.5988 124.471 38.6405V37.5072C124.575 37.4655 124.717 37.4322 124.896 37.4072C125.075 37.3822 125.217 37.3696 125.325 37.3696C125.954 37.3696 126.412 37.5155 126.7 37.8113C126.987 38.1072 127.133 38.4905 127.133 38.9697V43.8447H125.6L123.871 42.1321H123.821L122.092 43.8447H120.558L120.554 43.8405Z" fill="#005339"/>
<path d="M121.168 33.5032V32.1157H124.535C124.776 32.1157 124.985 32.1408 125.155 32.1866C125.33 32.2366 125.501 32.3199 125.681 32.4449H125.726V30.4199H127.135V33.5032H121.168Z" fill="#005339"/>
<path d="M130.952 34.1118C130.706 34.1118 130.464 34.0785 130.223 34.0077C129.981 33.9368 129.785 33.8536 129.623 33.7494L129.989 32.7744C130.081 32.8327 130.189 32.8827 130.314 32.9286C130.439 32.9744 130.56 32.9952 130.681 32.9952C130.864 32.9952 131.01 32.9411 131.118 32.8327C131.227 32.7244 131.281 32.5827 131.281 32.4119C131.281 32.2411 131.223 32.0994 131.102 31.9994C130.981 31.8952 130.827 31.8452 130.635 31.8452H129.223V29.9243H130.635V30.7994H130.993C131.531 30.7994 131.96 30.9452 132.277 31.2327C132.593 31.5202 132.752 31.9201 132.752 32.4243C132.752 32.9285 132.589 33.3536 132.268 33.6577C131.948 33.9619 131.506 34.116 130.956 34.116L130.952 34.1118ZM131.585 43.9327C130.956 43.9327 130.498 43.7744 130.21 43.4577C129.923 43.1411 129.777 42.7244 129.777 42.2077V36.9827C129.777 36.3036 129.948 35.8035 130.293 35.4827C130.635 35.1619 131.106 35.0036 131.702 35.0036C131.873 35.0036 132.027 35.0118 132.168 35.0243C132.31 35.0368 132.448 35.0577 132.569 35.0827V36.441C132.477 36.4244 132.389 36.4077 132.31 36.3993C132.231 36.3868 132.143 36.3826 132.043 36.3826C131.539 36.3826 131.289 36.6327 131.289 37.1327V42.0368C131.289 42.2702 131.348 42.4368 131.46 42.5368C131.573 42.6368 131.743 42.6827 131.968 42.6827C132.127 42.6827 132.281 42.6619 132.435 42.6161V43.7952C132.335 43.8368 132.193 43.8702 132.014 43.8952C131.831 43.9202 131.689 43.9327 131.585 43.9327Z" fill="#005339"/>
<path d="M138.082 43.9454C137.423 43.9454 136.848 43.8287 136.357 43.5912C135.865 43.3537 135.486 43.0204 135.215 42.5912C134.944 42.162 134.807 41.6578 134.807 41.0828V38.3037L133.961 37.9246V36.9203C133.961 36.3078 134.107 35.8454 134.394 35.5329C134.682 35.2204 135.148 35.062 135.782 35.062H136.682V36.4412H135.919C135.403 36.4412 135.14 36.6703 135.14 37.1287V37.3578L135.869 37.6495C136.028 37.7162 136.14 37.787 136.211 37.862C136.282 37.937 136.315 38.0579 136.315 38.2245V41.0162C136.315 41.512 136.473 41.9078 136.798 42.2161C137.119 42.5203 137.544 42.6745 138.073 42.6745C138.603 42.6745 139.019 42.5245 139.34 42.2203C139.661 41.9161 139.823 41.5162 139.823 41.0204V38.312L138.978 37.9329V36.9287C138.978 36.3162 139.123 35.8537 139.411 35.5412C139.703 35.2287 140.165 35.0704 140.798 35.0704H141.698V36.4495H140.936C140.419 36.4495 140.161 36.6787 140.161 37.137V37.3662L140.89 37.6578C141.048 37.7245 141.165 37.7953 141.232 37.8703C141.303 37.9453 141.336 38.0662 141.336 38.2329V41.0953C141.336 41.6703 141.198 42.1746 140.928 42.6037C140.657 43.0329 140.278 43.3662 139.79 43.6037C139.303 43.8412 138.728 43.9579 138.069 43.9579L138.082 43.9454Z" fill="#005339"/>
<path d="M143.988 36.4324V35.0532H150.667V36.4324H143.988ZM145.847 43.8907C145.217 43.8907 144.759 43.745 144.472 43.4491C144.184 43.1533 144.038 42.7699 144.038 42.2908V40.3283C144.038 39.745 144.172 39.2366 144.442 38.7991C144.713 38.3616 145.092 38.0241 145.588 37.7824C146.08 37.5407 146.663 37.4158 147.33 37.4158C147.997 37.4158 148.576 37.5366 149.072 37.7824C149.567 38.0241 149.947 38.3657 150.217 38.7991C150.488 39.2324 150.622 39.745 150.622 40.3283V43.8408H149.109V40.4033C149.109 39.8949 148.947 39.4866 148.617 39.1741C148.288 38.8616 147.863 38.7074 147.334 38.7074C146.805 38.7074 146.38 38.8658 146.051 39.1741C145.722 39.4866 145.559 39.8949 145.559 40.4033V42.1658C145.559 42.5158 145.788 42.6908 146.242 42.6908C146.401 42.6908 146.555 42.67 146.709 42.6241V43.7616C146.609 43.8033 146.467 43.8366 146.288 43.8616C146.105 43.8866 145.963 43.899 145.855 43.899L145.847 43.8907Z" fill="#005339"/>
<path d="M153.312 43.8408V40.0949H152.629V39.0282H153.987C154.546 39.0282 154.825 39.3074 154.825 39.8657V42.1658H154.887L156.437 40.5283H156.766L158.316 42.1658H158.379V38.345C158.379 38.095 158.35 37.8824 158.291 37.7158C158.233 37.5491 158.154 37.4157 158.058 37.3157C157.566 37.624 156.958 37.7782 156.225 37.7782C155.229 37.7782 154.475 37.5616 153.954 37.1324C153.433 36.7032 153.175 36.0991 153.175 35.3241V34.1157H154.666V35.2908C154.666 35.7199 154.808 36.0532 155.096 36.2907C155.379 36.5282 155.779 36.6491 156.296 36.6491C156.812 36.6491 157.2 36.5491 157.475 36.3491C157.75 36.1491 157.887 35.8658 157.887 35.5033V35.0574H159.429V35.5741C159.429 36.0574 159.266 36.4074 158.946 36.6241V36.6533C159.237 36.7783 159.466 36.9782 159.633 37.2532C159.804 37.5282 159.887 37.9032 159.887 38.374V43.8366H158.387L156.621 41.9574H156.579L154.812 43.8366H153.312V43.8408Z" fill="#005339"/>
</svg>
