<svg width="450" height="355" viewBox="0 0 450 355" fill="none" xmlns="http://www.w3.org/2000/svg">
<path d="M306.45 30.2918C306.4 30.546 306.587 31.1335 306.617 31.4252C306.683 32.1127 306.658 33.146 306.546 33.8252C306.233 35.6918 305.529 37.3835 304.396 38.8877C304.05 39.3502 302.546 41.1127 302.096 41.271C301.267 41.5627 300.3 40.9043 300.387 40.0085C300.442 39.4543 301.25 38.5335 301.596 38.021C302.371 36.8668 302.829 36.0377 302.862 34.5752C302.921 32.1252 301.146 29.7335 299.004 28.6668L291.3 44.3252C287.846 49.1793 280.242 47.021 277.746 42.2668C276.058 39.046 276.887 35.1085 280.621 33.9793C284.217 32.8918 288.067 34.7627 290.367 37.5085C290.504 37.671 290.646 37.946 290.783 38.0918C290.829 38.1418 290.804 38.1877 290.892 38.1168C291.775 36.371 292.642 34.6127 293.504 32.8543C295.946 27.8627 298.3 22.8168 300.804 17.8585C301.704 16.8668 303.533 17.5918 303.508 18.9377C303.492 19.821 303.208 20.6377 303.258 21.6127C303.392 24.221 305.054 26.2835 305.921 28.6377C306.121 29.1793 306.246 29.7502 306.454 30.2877L306.45 30.2918Z" fill="#FF7763"/>
<path d="M375.483 140.688C371.258 138.117 366.704 136.05 362.408 133.596C362.012 133.4 361.55 133.329 361.121 133.45L352.404 148.458C352.187 148.458 352.204 148.458 352.104 148.304C351.867 147.942 351.725 147.492 351.387 147.096C348.387 143.588 341.517 143.258 341.508 149.079C341.5 153.667 348.671 157.221 351.912 153.575C354.8 148.558 357.783 143.588 360.667 138.567C360.771 138.383 360.812 138.179 360.85 137.975C361.692 138.092 362.225 138.608 363.058 138.829L373.387 144.571L366.508 156.9C366.296 157.033 365.467 155.683 365.242 155.446C363.087 153.204 358.025 151.988 356.258 155.179C353.271 160.579 362.417 166.5 366.317 162.058L376.987 142.717C377.308 141.388 376.379 141.229 375.483 140.688Z" fill="#FF7763"/>
<path d="M68.5667 202.992C63.5792 206.783 59.0333 211.196 54.1458 215.117C53.7292 215.492 53.4292 216.004 53.375 216.567L67.0333 233.796C66.9333 234.054 66.9375 234.033 66.7125 234.079C66.175 234.192 65.5792 234.15 64.9583 234.367C59.4292 236.279 55.8583 244.225 62.7167 246.933C68.1208 249.067 75.6333 242.263 72.8375 236.75C68.2583 231.017 63.7833 225.2 59.2 219.475C59.0333 219.267 58.8125 219.121 58.5917 218.983C59.1167 218.046 59.975 217.658 60.6208 216.775L72.175 207.258L83.525 221.083C83.5833 221.396 81.6083 221.746 81.225 221.904C77.5833 223.404 73.8042 228.808 76.7458 232.371C81.725 238.4 92.9458 230.358 89.5167 223.704L71.6583 202.158C70.2375 201.163 69.6208 202.188 68.5667 202.992Z" fill="#FF7763"/>
</svg>
